<svg width="375" height="775" viewBox="0 0 375 775" fill="none" xmlns="http://www.w3.org/2000/svg">
<path d="M216 0C240.242 0 261.686 7.98721 274.733 20.2295C281.291 18.5361 288.472 17.5996 296 17.5996C313.17 17.5996 328.534 22.4595 338.807 30.1074C370.549 38.3256 392 54.0068 392 72C392 98.5097 345.438 120 288 120C266.351 120 246.248 116.947 229.6 111.723C214.757 116.911 196.172 120 176 120C127.399 120 88 102.091 88 80C88 66.9578 101.733 55.3753 122.983 48.0732C127.601 39.7739 137.233 33.098 149.428 29.6836C160.226 12.2604 185.965 0 216 0Z" fill="white" fill-opacity="0.75"/>
<path d="M398.314 254.031C398.208 251.722 397.863 249.44 397.116 247.514C395.004 242.067 394.369 237.059 387.945 234.997C379.594 232.317 377.071 246.583 368.354 244.889C364.83 244.204 363.745 242.265 360.142 242.543C351.342 243.225 354.113 248.931 347.847 249.758C343.981 250.269 341.413 248.652 337.731 249.758C330.367 251.972 332.516 253.835 328.255 256.607C316.588 264.194 292.002 265.889 292.002 265.889L384.257 266.691C391.767 266.756 398.659 261.534 398.314 254.031Z" fill="#F7F7F7"/>
<path d="M-21.0435 178.788C-21.0062 175.811 -20.6489 172.789 -19.6861 170.306C-17.3598 164.306 -16.6604 158.79 -9.58532 156.52C-0.387482 153.567 2.39223 169.281 11.9931 167.414C15.8739 166.66 17.0694 164.524 21.0378 164.831C30.7298 165.581 27.6784 171.866 34.5798 172.778C38.8378 173.34 41.6666 171.559 45.7212 172.778C53.8325 175.216 51.4651 177.268 56.1581 180.32C69.0085 188.678 96.0882 190.545 96.0882 190.545L-6.82718 191.439C-14.3373 191.504 -21.1378 186.298 -21.0435 178.788Z" fill="#F7F7F7"/>
<path d="M412.314 123.371C412.208 121.062 411.863 118.779 411.116 116.854C409.004 111.406 408.369 106.398 401.945 104.336C393.594 101.656 391.071 115.923 382.354 114.228C378.83 113.543 377.745 111.604 374.142 111.883C365.342 112.564 368.113 118.27 361.847 119.098C357.981 119.609 355.413 117.991 351.731 119.098C344.367 121.311 346.516 123.175 342.255 125.946C330.588 133.534 306.002 135.229 306.002 135.229L398.257 136.03C405.767 136.095 412.659 130.873 412.314 123.371Z" fill="#F7F7F7"/>
<g opacity="0.9">
<path d="M78 775C129.639 775 171.5 755.972 171.5 732.5C171.5 709.028 129.639 690 78 690C26.3614 690 -15.5 709.028 -15.5 732.5C-15.5 755.972 26.3614 775 78 775Z" fill="white" fill-opacity="0.95"/>
<path d="M197 775C258.027 775 307.5 752.167 307.5 724C307.5 695.833 258.027 673 197 673C135.973 673 86.5 695.833 86.5 724C86.5 752.167 135.973 775 197 775Z" fill="white" fill-opacity="0.95"/>
<path d="M120.5 749.5C162.75 749.5 197 726.667 197 698.5C197 670.333 162.75 647.5 120.5 647.5C78.2502 647.5 44 670.333 44 698.5C44 726.667 78.2502 749.5 120.5 749.5Z" fill="white" fill-opacity="0.95"/>
<path d="M205.5 741C238.361 741 265 724.255 265 703.6C265 682.945 238.361 666.2 205.5 666.2C172.639 666.2 146 682.945 146 703.6C146 724.255 172.639 741 205.5 741Z" fill="white" fill-opacity="0.95"/>
<path d="M69.5 744.4C97.6665 744.4 120.5 729.178 120.5 710.4C120.5 691.622 97.6665 676.4 69.5 676.4C41.3335 676.4 18.5 691.622 18.5 710.4C18.5 729.178 41.3335 744.4 69.5 744.4Z" fill="white" fill-opacity="0.95"/>
</g>
<g opacity="0.9">
<path d="M223 765C283.751 765 333 742.614 333 715C333 687.386 283.751 665 223 665C162.249 665 113 687.386 113 715C113 742.614 162.249 765 223 765Z" fill="white" fill-opacity="0.95"/>
<path d="M363 765C434.797 765 493 738.137 493 705C493 671.863 434.797 645 363 645C291.203 645 233 671.863 233 705C233 738.137 291.203 765 363 765Z" fill="white" fill-opacity="0.95"/>
<path d="M273 735C322.706 735 363 708.137 363 675C363 641.863 322.706 615 273 615C223.294 615 183 641.863 183 675C183 708.137 223.294 735 273 735Z" fill="white" fill-opacity="0.95"/>
<path d="M373 725C411.66 725 443 705.301 443 681C443 656.699 411.66 637 373 637C334.34 637 303 656.699 303 681C303 705.301 334.34 725 373 725Z" fill="white" fill-opacity="0.95"/>
<path d="M213 729C246.137 729 273 711.091 273 689C273 666.909 246.137 649 213 649C179.863 649 153 666.909 153 689C153 711.091 179.863 729 213 729Z" fill="white" fill-opacity="0.95"/>
</g>
<g opacity="0.3">
<path d="M219.943 148.292C232.828 148.292 243.273 143.517 243.273 137.627C243.273 131.737 232.828 126.962 219.943 126.962C207.058 126.962 196.613 131.737 196.613 137.627C196.613 143.517 207.058 148.292 219.943 148.292Z" fill="white" fill-opacity="0.75"/>
<path d="M243.272 148.292C257.997 148.292 269.934 142.323 269.934 134.961C269.934 127.598 257.997 121.629 243.272 121.629C228.547 121.629 216.609 127.598 216.609 134.961C216.609 142.323 228.547 148.292 243.272 148.292Z" fill="white" fill-opacity="0.75"/>
<path d="M229.941 142.959C240.249 142.959 248.605 137.588 248.605 130.961C248.605 124.335 240.249 118.963 229.941 118.963C219.633 118.963 211.277 124.335 211.277 130.961C211.277 137.588 219.633 142.959 229.941 142.959Z" fill="white" fill-opacity="0.75"/>
</g>
<path opacity="0.96" d="M81.6562 61C90.5851 61 98.7814 63.0172 105.205 66.3789C106.236 66.3492 107.274 66.333 108.319 66.333C137.77 66.3331 161.644 78.27 161.645 92.9951C161.645 107.72 137.77 119.658 108.319 119.658C99.8182 119.658 91.7822 118.661 84.6504 116.892C77.8646 118.652 70.0193 119.658 61.6602 119.658C35.891 119.658 15.0002 110.108 15 98.3281C15 89.0896 27.8486 81.2233 45.8223 78.2588C50.3522 68.2864 64.6802 61.0001 81.6562 61Z" fill="#F5E6FF" fill-opacity="0.6"/>
</svg>
