<svg width="22" height="20" viewBox="0 0 22 20" fill="none" xmlns="http://www.w3.org/2000/svg">
<path d="M0.75 3.69145C4.25 7.12313 9.3255 5.65241 10.4824 3.69145C10.6526 3.40301 10.75 3.06814 10.75 2.71096C10.75 1.62795 9.85457 0.75 8.75 0.75C7.64543 0.75 6.75 1.62795 6.75 2.71096" stroke="white" stroke-width="1.5" stroke-linecap="round"/>
<path d="M15.75 6.67814C15.75 5.06097 16.8693 3.75 18.25 3.75C19.6307 3.75 20.75 5.06097 20.75 6.67814C20.75 7.3952 20.5299 8.05206 20.1646 8.56113C18.0963 11.9415 8.0264 10.6664 2.75 9.60628" stroke="white" stroke-width="1.5" stroke-linecap="round"/>
<path d="M11.8354 17.6373C12.0413 18.2856 12.5969 18.75 13.25 18.75C14.0784 18.75 14.75 18.0028 14.75 17.081C14.75 16.7676 14.6724 16.4744 14.5373 16.2238C13.2499 13.7425 6.74996 12.0739 0.75 16.5246" stroke="white" stroke-width="1.5" stroke-linecap="round"/>
<path d="M17.75 13.25H19.75" stroke="white" stroke-width="1.5" stroke-linecap="round" stroke-linejoin="round"/>
</svg>
