<svg width="375" height="755" viewBox="0 0 375 755" fill="none" xmlns="http://www.w3.org/2000/svg">
<path fill-rule="evenodd" clip-rule="evenodd" d="M320.367 220.262C327.065 220.262 333.213 221.773 338.031 224.295C338.804 224.273 339.583 224.262 340.367 224.262C362.459 224.262 380.367 233.216 380.367 244.262C380.367 255.307 362.458 264.262 340.367 264.262C333.99 264.262 327.962 263.513 322.612 262.186C317.522 263.506 311.637 264.262 305.367 264.262C286.038 264.262 270.368 257.098 270.367 248.262C270.367 241.332 280.005 235.431 293.487 233.207C296.885 225.726 307.633 220.262 320.367 220.262Z" fill="#F5A623" fill-opacity="0.06"/>
<path d="M29.834 395.902C35.4139 395.902 40.5364 397.163 44.5508 399.264C45.1948 399.245 45.8438 399.235 46.4971 399.235C64.9016 399.235 79.8219 406.695 79.8223 415.897C79.8223 425.1 64.9019 432.56 46.4971 432.561C41.1839 432.561 36.1613 431.937 31.7041 430.831C27.4637 431.931 22.5614 432.561 17.3379 432.561C1.23373 432.561 -11.8221 426.592 -11.8223 419.23C-11.8223 413.457 -3.79232 408.54 7.44043 406.688C10.2718 400.456 19.2254 395.902 29.834 395.902Z" fill="#F5A623" fill-opacity="0.06"/>
<g opacity="0.3">
<path d="M215.678 129.216C220.142 129.216 224.239 130.225 227.451 131.906C227.967 131.891 228.486 131.882 229.009 131.882C243.734 131.882 255.672 137.852 255.672 145.214C255.672 152.577 243.734 158.545 229.009 158.545C224.756 158.545 220.736 158.046 217.169 157.161C213.777 158.04 209.857 158.545 205.68 158.545C192.795 158.545 182.35 153.77 182.35 147.88C182.35 143.261 188.774 139.328 197.761 137.846C200.026 132.86 207.189 129.216 215.678 129.216Z" fill="#C97CF5" fill-opacity="0.08"/>
</g>
<g opacity="0.303539">
<rect width="3.74592" height="3.74591" transform="translate(74.3145 183.877)" fill="#C97CF5"/>
</g>
<g opacity="0.294604">
<path d="M278.107 513C278.107 512.231 278.731 511.607 279.5 511.607C280.269 511.607 280.893 512.231 280.893 513C280.893 513.769 280.269 514.393 279.5 514.393C278.731 514.393 278.107 513.769 278.107 513Z" fill="#F5A623"/>
</g>
<g opacity="0.9">
<path d="M220.566 583C241.778 583 260.541 589.988 271.958 600.7C277.696 599.218 283.979 598.4 290.566 598.4C305.594 598.4 319.039 602.654 328.027 609.349C355.799 616.54 374.566 630.257 374.566 646C374.566 669.196 333.824 688 283.566 688C264.624 688 247.035 685.327 232.468 680.757C219.48 685.297 203.218 688 185.566 688C143.04 688 108.566 672.33 108.566 653C108.566 641.588 120.582 631.453 139.177 625.063C143.217 617.802 151.646 611.96 162.316 608.973C171.765 593.728 194.286 583 220.566 583Z" fill="#C97CF5" fill-opacity="0.08"/>
</g>
<g opacity="0.9">
<path d="M218 -44C239.626 -44 259.026 -37.6426 272.224 -27.5791C276.748 -27.8565 281.364 -28 286.052 -28C343.489 -27.9999 390.052 -6.50963 390.052 20C390.052 46.5096 343.489 67.9999 286.052 68C270.282 68 255.333 66.3793 241.941 63.4805C225.9 71.189 203.186 76 178 76C129.399 75.9999 90 58.0913 90 36C90 22.9579 103.733 11.3753 124.983 4.07324C129.601 -4.2261 139.233 -10.902 151.428 -14.3164C162.225 -31.7396 187.965 -43.9999 218 -44Z" fill="#C97CF5" fill-opacity="0.08"/>
</g>
<path d="M57.4707 65.332C66.3997 65.332 74.5958 67.3491 81.0195 70.7109C82.0497 70.6813 83.0877 70.665 84.1328 70.665C113.583 70.665 137.458 82.602 137.458 97.3271C137.458 112.052 113.583 123.99 84.1328 123.99C75.6316 123.99 67.5957 122.993 60.4639 121.224C53.6781 122.984 45.8327 123.99 37.4736 123.99C11.7045 123.99 -9.18536 114.44 -9.18555 102.66C-9.18555 93.4215 3.66285 85.5553 21.6367 82.5908C26.1668 72.6184 40.4946 65.332 57.4707 65.332Z" fill="#F5A623" fill-opacity="0.06"/>
<path d="M99.7305 627.5C125.487 627.5 148.271 635.986 162.134 648.993C169.101 647.194 176.731 646.2 184.73 646.2C202.974 646.2 219.298 651.363 230.212 659.489C263.939 668.221 286.73 684.882 286.73 704C286.73 732.166 237.258 755 176.23 755C153.229 755 131.869 751.755 114.181 746.205C98.4106 751.718 78.6633 755 57.2305 755C5.59185 755 -36.2695 735.972 -36.2695 712.5C-36.2695 698.643 -21.679 686.337 0.899414 678.578C5.80538 669.76 16.0399 662.667 28.9971 659.039C40.4696 640.527 67.8182 627.5 99.7305 627.5Z" fill="#C97CF5" fill-opacity="0.12"/>
<g opacity="0.9">
<path d="M201.014 585C231.316 585 258.121 594.984 274.431 610.287C282.627 608.17 291.603 607 301.014 607C322.481 607 341.692 613.074 354.532 622.638C394.205 632.911 421.014 652.51 421.014 675C421.014 708.137 362.811 735 291.014 735C263.956 735 238.828 731.184 218.02 724.655C199.466 731.142 176.231 735 151.014 735C90.2623 735 41.0137 712.614 41.0137 685C41.0137 668.698 58.1786 654.218 84.7412 645.091C90.5131 634.716 102.555 626.372 117.799 622.104C131.296 600.326 163.47 585 201.014 585Z" fill="#C97CF5" fill-opacity="0.12"/>
</g>
<path d="M311.037 266.371C311.143 264.062 311.489 261.779 312.235 259.854C314.348 254.406 314.983 249.398 321.406 247.336C329.757 244.656 332.281 258.923 340.998 257.228C344.521 256.543 345.607 254.604 349.21 254.883C358.009 255.564 355.239 261.27 361.505 262.098C365.371 262.609 367.939 260.991 371.62 262.098C378.985 264.311 376.835 266.175 381.096 268.946C392.763 276.534 417.35 278.229 417.35 278.229L325.094 279.03C317.584 279.095 310.693 273.873 311.037 266.371Z" fill="#4E375F"/>
<g opacity="0.67">
<path d="M88.4938 227.579C88.4938 212.829 86.741 200.871 84.5789 200.871C82.4168 200.871 80.6641 212.829 80.6641 227.579C80.6641 242.33 82.4168 254.288 84.5789 254.288C86.741 254.288 88.4938 242.33 88.4938 227.579Z" fill="url(#paint0_radial_2328_10733)" fill-opacity="0.35" style="mix-blend-mode:screen"/>
<path d="M85.2709 231.068C99.7659 231.068 111.516 229.284 111.516 227.084C111.516 224.884 99.7659 223.1 85.2709 223.1C70.7759 223.1 59.0254 224.884 59.0254 227.084C59.0254 229.284 70.7759 231.068 85.2709 231.068Z" fill="url(#paint1_radial_2328_10733)" fill-opacity="0.35" style="mix-blend-mode:screen"/>
<g style="mix-blend-mode:screen">
<path d="M207.826 188.909C207.826 177.437 206.442 168.136 204.735 168.136C203.028 168.136 201.645 177.437 201.645 188.909C201.645 200.382 203.028 209.683 204.735 209.683C206.442 209.683 207.826 200.382 207.826 188.909Z" fill="url(#paint2_radial_2328_10733)" fill-opacity="0.35" style="mix-blend-mode:screen"/>
<path d="M205.283 191.622C216.726 191.622 226.003 190.235 226.003 188.524C226.003 186.813 216.726 185.425 205.283 185.425C193.839 185.425 184.562 186.813 184.562 188.524C184.562 190.235 193.839 191.622 205.283 191.622Z" fill="url(#paint3_radial_2328_10733)" fill-opacity="0.35" style="mix-blend-mode:screen"/>
</g>
<g style="mix-blend-mode:screen">
<path d="M285.896 166.515C285.896 155.042 284.512 145.742 282.806 145.742C281.099 145.742 279.715 155.042 279.715 166.515C279.715 177.988 281.099 187.288 282.806 187.288C284.512 187.288 285.896 177.988 285.896 166.515Z" fill="url(#paint4_radial_2328_10733)" fill-opacity="0.35" style="mix-blend-mode:screen"/>
<path d="M283.353 169.228C294.796 169.228 304.073 167.841 304.073 166.129C304.073 164.418 294.796 163.031 283.353 163.031C271.91 163.031 262.633 164.418 262.633 166.129C262.633 167.841 271.91 169.228 283.353 169.228Z" fill="url(#paint5_radial_2328_10733)" fill-opacity="0.35" style="mix-blend-mode:screen"/>
</g>
<g style="mix-blend-mode:screen">
<path d="M259.92 239.908C259.92 228.435 258.536 219.135 256.829 219.135C255.122 219.135 253.738 228.435 253.738 239.908C253.738 251.381 255.122 260.681 256.829 260.681C258.536 260.681 259.92 251.381 259.92 239.908Z" fill="url(#paint6_radial_2328_10733)" fill-opacity="0.35" style="mix-blend-mode:screen"/>
<path d="M257.376 242.621C268.82 242.621 278.097 241.234 278.097 239.522C278.097 237.811 268.82 236.424 257.376 236.424C245.933 236.424 236.656 237.811 236.656 239.522C236.656 241.234 245.933 242.621 257.376 242.621Z" fill="url(#paint7_radial_2328_10733)" fill-opacity="0.35" style="mix-blend-mode:screen"/>
</g>
<g style="mix-blend-mode:screen">
<path d="M173.67 104.072C173.67 86.8632 171.548 72.9125 168.93 72.9125C166.313 72.9125 164.191 86.8632 164.191 104.072C164.191 121.281 166.313 135.232 168.93 135.232C171.548 135.232 173.67 121.281 173.67 104.072Z" fill="url(#paint8_radial_2328_10733)" fill-opacity="0.35" style="mix-blend-mode:screen"/>
<path d="M169.769 108.143C187.316 108.143 201.54 106.062 201.54 103.495C201.54 100.928 187.316 98.8472 169.769 98.8472C152.222 98.8472 137.998 100.928 137.998 103.495C137.998 106.062 152.222 108.143 169.769 108.143Z" fill="url(#paint9_radial_2328_10733)" fill-opacity="0.35" style="mix-blend-mode:screen"/>
</g>
<g style="mix-blend-mode:screen">
<path d="M120.991 164.968C120.991 155.135 119.761 147.163 118.243 147.163C116.726 147.163 115.496 155.135 115.496 164.968C115.496 174.802 116.726 182.774 118.243 182.774C119.761 182.774 120.991 174.802 120.991 164.968Z" fill="url(#paint10_radial_2328_10733)" fill-opacity="0.35" style="mix-blend-mode:screen"/>
<path d="M118.73 167.294C128.902 167.294 137.148 166.105 137.148 164.638C137.148 163.172 128.902 161.982 118.73 161.982C108.558 161.982 100.312 163.172 100.312 164.638C100.312 166.105 108.558 167.294 118.73 167.294Z" fill="url(#paint11_radial_2328_10733)" fill-opacity="0.35" style="mix-blend-mode:screen"/>
</g>
<path d="M200.79 313.352C199.789 308.589 202.006 303.693 205.742 302.417C209.479 301.141 213.319 303.967 214.32 308.73C215.321 313.493 213.104 318.389 209.368 319.665C205.631 320.941 201.791 318.114 200.79 313.352Z" fill="url(#paint12_radial_2328_10733)" fill-opacity="0.36" style="mix-blend-mode:color-dodge"/>
<path d="M206.651 311.677C206.544 311.166 206.781 310.642 207.182 310.505C207.582 310.368 207.993 310.671 208.101 311.181C208.208 311.692 207.97 312.216 207.57 312.353C207.17 312.49 206.758 312.187 206.651 311.677Z" fill="#FFD500"/>
<path d="M203.081 202.552C202.08 197.79 204.297 192.894 208.033 191.618C211.77 190.342 215.61 193.168 216.611 197.931C217.612 202.694 215.395 207.589 211.659 208.865C207.922 210.142 204.082 207.315 203.081 202.552Z" fill="url(#paint13_radial_2328_10733)" fill-opacity="0.36" style="mix-blend-mode:color-dodge"/>
<path d="M208.944 200.88C208.837 200.37 209.074 199.845 209.475 199.709C209.875 199.572 210.286 199.875 210.394 200.385C210.501 200.895 210.263 201.42 209.863 201.557C209.463 201.693 209.051 201.391 208.944 200.88Z" fill="#FFD500"/>
<path d="M131.473 178.099C130.472 173.336 132.69 168.44 136.426 167.164C140.162 165.888 144.003 168.715 145.004 173.477C146.005 178.24 143.788 183.136 140.051 184.412C136.315 185.688 132.475 182.862 131.473 178.099Z" fill="url(#paint14_radial_2328_10733)" fill-opacity="0.36" style="mix-blend-mode:color-dodge"/>
<path d="M137.337 176.428C137.229 175.917 137.467 175.393 137.867 175.256C138.268 175.119 138.679 175.422 138.786 175.932C138.894 176.443 138.656 176.967 138.256 177.104C137.855 177.241 137.444 176.938 137.337 176.428Z" fill="#FFD500"/>
<path d="M196.63 353.759C195.629 348.996 197.846 344.101 201.582 342.824C205.318 341.548 209.159 344.375 210.16 349.137C211.161 353.9 208.944 358.796 205.208 360.072C201.471 361.348 197.631 358.522 196.63 353.759Z" fill="url(#paint15_radial_2328_10733)" fill-opacity="0.36" style="mix-blend-mode:color-dodge"/>
<path d="M202.493 352.086C202.386 351.576 202.623 351.051 203.023 350.915C203.424 350.778 203.835 351.081 203.943 351.591C204.05 352.101 203.812 352.626 203.412 352.763C203.012 352.899 202.6 352.597 202.493 352.086Z" fill="#FFD500"/>
<path d="M114.3 385.769C113.299 381.006 115.516 376.111 119.252 374.835C122.988 373.559 126.829 376.385 127.83 381.148C128.831 385.91 126.614 390.806 122.877 392.082C119.141 393.358 115.301 390.532 114.3 385.769Z" fill="url(#paint16_radial_2328_10733)" fill-opacity="0.36" style="mix-blend-mode:color-dodge"/>
<path d="M120.163 384.094C120.055 383.584 120.293 383.059 120.693 382.923C121.094 382.786 121.505 383.089 121.612 383.599C121.72 384.109 121.482 384.634 121.082 384.771C120.681 384.907 120.27 384.604 120.163 384.094Z" fill="#FFD500"/>
<path d="M14.0028 234.509C13.0017 229.747 15.2189 224.851 18.9552 223.575C22.6915 222.299 26.5319 225.125 27.533 229.888C28.5341 234.651 26.3169 239.546 22.5806 240.822C18.8443 242.099 15.0039 239.272 14.0028 234.509Z" fill="url(#paint17_radial_2328_10733)" fill-opacity="0.36" style="mix-blend-mode:color-dodge"/>
<path d="M19.8659 232.834C19.7586 232.324 19.9962 231.799 20.3965 231.662C20.7968 231.526 21.2083 231.828 21.3155 232.339C21.4228 232.849 21.1852 233.374 20.7849 233.51C20.3846 233.647 19.9731 233.344 19.8659 232.834Z" fill="#FFD500"/>
<path d="M66.4652 377.227C65.6699 373.443 67.4314 369.554 70.3996 368.54C73.3679 367.526 76.4189 369.772 77.2142 373.556C78.0095 377.339 76.2481 381.229 73.2798 382.242C70.3115 383.256 67.2605 381.011 66.4652 377.227Z" fill="url(#paint18_radial_2328_10733)" fill-opacity="0.36" style="mix-blend-mode:color-dodge"/>
<path d="M71.1198 375.901C71.0346 375.495 71.2233 375.078 71.5414 374.97C71.8594 374.861 72.1863 375.102 72.2715 375.507C72.3567 375.913 72.168 376.329 71.8499 376.438C71.5319 376.547 71.205 376.306 71.1198 375.901Z" fill="#FFD500"/>
<path d="M146.508 267.17C145.713 263.387 147.474 259.498 150.443 258.484C153.411 257.47 156.462 259.715 157.257 263.499C158.053 267.283 156.291 271.172 153.323 272.186C150.355 273.2 147.304 270.954 146.508 267.17Z" fill="url(#paint19_radial_2328_10733)" fill-opacity="0.36" style="mix-blend-mode:color-dodge"/>
<path d="M151.167 265.841C151.081 265.436 151.27 265.019 151.588 264.911C151.906 264.802 152.233 265.043 152.318 265.448C152.404 265.853 152.215 266.27 151.897 266.379C151.579 266.487 151.252 266.247 151.167 265.841Z" fill="#FFD500"/>
<path d="M160.293 171.537C159.498 167.753 161.259 163.864 164.228 162.85C167.196 161.836 170.247 164.082 171.042 167.866C171.838 171.649 170.076 175.539 167.108 176.553C164.14 177.566 161.089 175.321 160.293 171.537Z" fill="url(#paint20_radial_2328_10733)" fill-opacity="0.36" style="mix-blend-mode:color-dodge"/>
<path d="M164.95 170.208C164.865 169.803 165.053 169.386 165.371 169.277C165.689 169.169 166.016 169.409 166.102 169.815C166.187 170.22 165.998 170.637 165.68 170.746C165.362 170.854 165.035 170.614 164.95 170.208Z" fill="#FFD500"/>
<path d="M203.614 145.509C202.818 141.725 204.58 137.836 207.548 136.822C210.516 135.808 213.567 138.054 214.363 141.837C215.158 145.621 213.396 149.51 210.428 150.524C207.46 151.538 204.409 149.293 203.614 145.509Z" fill="url(#paint21_radial_2328_10733)" fill-opacity="0.36" style="mix-blend-mode:color-dodge"/>
<path d="M208.272 144.183C208.187 143.778 208.376 143.361 208.694 143.253C209.012 143.144 209.339 143.384 209.424 143.79C209.509 144.195 209.32 144.612 209.002 144.721C208.684 144.829 208.357 144.589 208.272 144.183Z" fill="#FFD500"/>
<path d="M238.516 311.547C237.721 307.763 239.482 303.874 242.45 302.86C245.419 301.846 248.47 304.092 249.265 307.875C250.06 311.659 248.299 315.548 245.331 316.562C242.362 317.576 239.311 315.331 238.516 311.547Z" fill="url(#paint22_radial_2328_10733)" fill-opacity="0.36" style="mix-blend-mode:color-dodge"/>
<path d="M243.174 310.216C243.089 309.811 243.278 309.394 243.596 309.286C243.914 309.177 244.241 309.418 244.326 309.823C244.411 310.228 244.223 310.645 243.905 310.754C243.587 310.862 243.26 310.622 243.174 310.216Z" fill="#FFD500"/>
<path d="M228.181 470.687C227.179 465.924 229.397 461.028 233.133 459.752C236.869 458.476 240.71 461.302 241.711 466.065C242.712 470.828 240.495 475.724 236.758 477C233.022 478.276 229.182 475.449 228.181 470.687Z" fill="url(#paint23_radial_2328_10733)" fill-opacity="0.36" style="mix-blend-mode:color-dodge"/>
<path d="M234.042 469.013C233.934 468.502 234.172 467.978 234.572 467.841C234.973 467.704 235.384 468.007 235.491 468.517C235.599 469.028 235.361 469.552 234.961 469.689C234.56 469.826 234.149 469.523 234.042 469.013Z" fill="#FFD500"/>
<path d="M230.472 359.888C229.47 355.126 231.688 350.23 235.424 348.954C239.16 347.678 243.001 350.504 244.002 355.267C245.003 360.03 242.786 364.925 239.049 366.201C235.313 367.478 231.473 364.651 230.472 359.888Z" fill="url(#paint24_radial_2328_10733)" fill-opacity="0.36" style="mix-blend-mode:color-dodge"/>
<path d="M236.335 358.217C236.227 357.706 236.465 357.182 236.865 357.045C237.266 356.908 237.677 357.211 237.784 357.722C237.892 358.232 237.654 358.756 237.254 358.893C236.853 359.03 236.442 358.727 236.335 358.217Z" fill="#FFD500"/>
<path d="M158.862 335.435C157.861 330.672 160.078 325.776 163.815 324.5C167.551 323.224 171.391 326.05 172.392 330.813C173.394 335.576 171.176 340.472 167.44 341.748C163.704 343.024 159.863 340.197 158.862 335.435Z" fill="url(#paint25_radial_2328_10733)" fill-opacity="0.36" style="mix-blend-mode:color-dodge"/>
<path d="M164.725 333.764C164.618 333.253 164.856 332.729 165.256 332.592C165.656 332.455 166.068 332.758 166.175 333.268C166.282 333.779 166.045 334.303 165.644 334.44C165.244 334.577 164.833 334.274 164.725 333.764Z" fill="#FFD500"/>
<path d="M224.02 511.095C223.019 506.333 225.236 501.437 228.973 500.161C232.709 498.885 236.549 501.711 237.551 506.474C238.552 511.237 236.334 516.132 232.598 517.408C228.862 518.685 225.021 515.858 224.02 511.095Z" fill="url(#paint26_radial_2328_10733)" fill-opacity="0.36" style="mix-blend-mode:color-dodge"/>
<path d="M229.883 509.422C229.776 508.912 230.014 508.387 230.414 508.251C230.814 508.114 231.226 508.417 231.333 508.927C231.44 509.437 231.203 509.962 230.803 510.099C230.402 510.235 229.991 509.933 229.883 509.422Z" fill="#FFD500"/>
<path d="M141.69 543.106C140.689 538.343 142.906 533.447 146.643 532.171C150.379 530.895 154.219 533.721 155.22 538.484C156.222 543.247 154.004 548.142 150.268 549.419C146.532 550.695 142.691 547.868 141.69 543.106Z" fill="url(#paint27_radial_2328_10733)" fill-opacity="0.36" style="mix-blend-mode:color-dodge"/>
<path d="M147.553 541.43C147.446 540.92 147.684 540.395 148.084 540.259C148.484 540.122 148.896 540.425 149.003 540.935C149.11 541.445 148.873 541.97 148.472 542.106C148.072 542.243 147.661 541.94 147.553 541.43Z" fill="#FFD500"/>
<path d="M41.3934 391.846C40.3923 387.083 42.6095 382.188 46.3458 380.911C50.0821 379.635 53.9225 382.462 54.9236 387.224C55.9248 391.987 53.7075 396.883 49.9712 398.159C46.235 399.435 42.3945 396.609 41.3934 391.846Z" fill="url(#paint28_radial_2328_10733)" fill-opacity="0.36" style="mix-blend-mode:color-dodge"/>
<path d="M47.2565 390.17C47.1492 389.66 47.3868 389.135 47.7871 388.998C48.1874 388.862 48.5989 389.164 48.7062 389.675C48.8134 390.185 48.5759 390.709 48.1756 390.846C47.7752 390.983 47.3638 390.68 47.2565 390.17Z" fill="#FFD500"/>
<path d="M93.8558 534.563C93.0605 530.779 94.822 526.89 97.7902 525.876C100.758 524.862 103.809 527.108 104.605 530.892C105.4 534.675 103.639 538.565 100.67 539.578C97.7022 540.592 94.6512 538.347 93.8558 534.563Z" fill="url(#paint29_radial_2328_10733)" fill-opacity="0.36" style="mix-blend-mode:color-dodge"/>
<path d="M98.5104 533.236C98.4252 532.831 98.6139 532.414 98.932 532.305C99.25 532.197 99.5769 532.437 99.6621 532.843C99.7473 533.248 99.5586 533.665 99.2406 533.773C98.9225 533.882 98.5956 533.641 98.5104 533.236Z" fill="#FFD500"/>
<path d="M173.899 424.506C173.103 420.723 174.865 416.833 177.833 415.82C180.801 414.806 183.852 417.051 184.648 420.835C185.443 424.619 183.682 428.508 180.713 429.522C177.745 430.536 174.694 428.29 173.899 424.506Z" fill="url(#paint30_radial_2328_10733)" fill-opacity="0.36" style="mix-blend-mode:color-dodge"/>
<path d="M178.557 423.178C178.472 422.772 178.661 422.356 178.979 422.247C179.297 422.139 179.624 422.379 179.709 422.785C179.794 423.19 179.605 423.607 179.287 423.715C178.969 423.824 178.643 423.583 178.557 423.178Z" fill="#FFD500"/>
<path d="M187.684 328.874C186.889 325.09 188.65 321.201 191.618 320.187C194.587 319.173 197.638 321.418 198.433 325.202C199.228 328.986 197.467 332.875 194.499 333.889C191.53 334.903 188.479 332.657 187.684 328.874Z" fill="url(#paint31_radial_2328_10733)" fill-opacity="0.36" style="mix-blend-mode:color-dodge"/>
<path d="M192.341 327.545C192.255 327.139 192.444 326.722 192.762 326.614C193.08 326.505 193.407 326.746 193.492 327.151C193.577 327.557 193.389 327.973 193.071 328.082C192.753 328.191 192.426 327.95 192.341 327.545Z" fill="#FFD500"/>
<path d="M231.004 302.845C230.209 299.062 231.97 295.172 234.939 294.158C237.907 293.145 240.958 295.39 241.753 299.174C242.549 302.958 240.787 306.847 237.819 307.861C234.851 308.875 231.8 306.629 231.004 302.845Z" fill="url(#paint32_radial_2328_10733)" fill-opacity="0.36" style="mix-blend-mode:color-dodge"/>
<path d="M235.663 301.519C235.578 301.114 235.766 300.697 236.084 300.588C236.402 300.48 236.729 300.72 236.814 301.126C236.9 301.531 236.711 301.948 236.393 302.057C236.075 302.165 235.748 301.925 235.663 301.519Z" fill="#FFD500"/>
<path d="M265.907 468.883C265.111 465.1 266.873 461.21 269.841 460.197C272.809 459.183 275.86 461.428 276.656 465.212C277.451 468.996 275.689 472.885 272.721 473.899C269.753 474.913 266.702 472.667 265.907 468.883Z" fill="url(#paint33_radial_2328_10733)" fill-opacity="0.36" style="mix-blend-mode:color-dodge"/>
<path d="M270.565 467.552C270.48 467.147 270.669 466.73 270.987 466.622C271.305 466.513 271.632 466.754 271.717 467.159C271.802 467.564 271.613 467.981 271.295 468.09C270.977 468.198 270.65 467.958 270.565 467.552Z" fill="#FFD500"/>
<path d="M360.214 307.547C359.213 302.784 361.43 297.889 365.166 296.613C368.902 295.336 372.743 298.163 373.744 302.926C374.745 307.688 372.528 312.584 368.792 313.86C365.055 315.136 361.215 312.31 360.214 307.547Z" fill="url(#paint34_radial_2328_10733)" fill-opacity="0.36" style="mix-blend-mode:color-dodge"/>
<path d="M366.075 305.871C365.968 305.361 366.205 304.837 366.605 304.7C367.006 304.563 367.417 304.866 367.525 305.376C367.632 305.887 367.394 306.411 366.994 306.548C366.594 306.685 366.182 306.382 366.075 305.871Z" fill="#FFD500"/>
<path d="M362.503 196.747C361.502 191.984 363.719 187.088 367.455 185.812C371.191 184.536 375.032 187.362 376.033 192.125C377.034 196.888 374.817 201.784 371.081 203.06C367.344 204.336 363.504 201.509 362.503 196.747Z" fill="url(#paint35_radial_2328_10733)" fill-opacity="0.36" style="mix-blend-mode:color-dodge"/>
<path d="M368.366 195.076C368.259 194.565 368.496 194.041 368.896 193.904C369.297 193.767 369.708 194.07 369.816 194.58C369.923 195.091 369.685 195.615 369.285 195.752C368.885 195.889 368.473 195.586 368.366 195.076Z" fill="#FFD500"/>
<path d="M290.895 172.295C289.894 167.532 292.111 162.636 295.848 161.36C299.584 160.084 303.424 162.91 304.426 167.673C305.427 172.436 303.209 177.331 299.473 178.608C295.737 179.884 291.896 177.057 290.895 172.295Z" fill="url(#paint36_radial_2328_10733)" fill-opacity="0.36" style="mix-blend-mode:color-dodge"/>
<path d="M296.758 170.623C296.651 170.113 296.889 169.588 297.289 169.451C297.689 169.315 298.101 169.617 298.208 170.128C298.315 170.638 298.078 171.163 297.678 171.299C297.277 171.436 296.866 171.133 296.758 170.623Z" fill="#FFD500"/>
<path d="M356.054 347.954C355.052 343.191 357.27 338.296 361.006 337.02C364.742 335.744 368.583 338.57 369.584 343.333C370.585 348.096 368.368 352.991 364.631 354.267C360.895 355.543 357.055 352.717 356.054 347.954Z" fill="url(#paint37_radial_2328_10733)" fill-opacity="0.36" style="mix-blend-mode:color-dodge"/>
<path d="M361.917 346.282C361.809 345.771 362.047 345.247 362.447 345.11C362.848 344.973 363.259 345.276 363.366 345.786C363.474 346.297 363.236 346.821 362.836 346.958C362.435 347.095 362.024 346.792 361.917 346.282Z" fill="#FFD500"/>
<path d="M273.722 379.964C272.72 375.202 274.938 370.306 278.674 369.03C282.41 367.754 286.251 370.58 287.252 375.343C288.253 380.106 286.036 385.001 282.299 386.278C278.563 387.554 274.723 384.727 273.722 379.964Z" fill="url(#paint38_radial_2328_10733)" fill-opacity="0.36" style="mix-blend-mode:color-dodge"/>
<path d="M279.585 378.289C279.477 377.779 279.715 377.255 280.115 377.118C280.516 376.981 280.927 377.284 281.034 377.794C281.142 378.305 280.904 378.829 280.504 378.966C280.103 379.103 279.692 378.8 279.585 378.289Z" fill="#FFD500"/>
<path d="M173.425 228.705C172.424 223.942 174.641 219.047 178.377 217.771C182.113 216.495 185.954 219.321 186.955 224.084C187.956 228.847 185.739 233.742 182.002 235.018C178.266 236.294 174.426 233.468 173.425 228.705Z" fill="url(#paint39_radial_2328_10733)" fill-opacity="0.36" style="mix-blend-mode:color-dodge"/>
<path d="M179.29 227.029C179.182 226.519 179.42 225.994 179.82 225.858C180.221 225.721 180.632 226.024 180.739 226.534C180.847 227.044 180.609 227.569 180.209 227.706C179.808 227.842 179.397 227.539 179.29 227.029Z" fill="#FFD500"/>
<path d="M225.887 371.422C225.092 367.639 226.853 363.749 229.821 362.736C232.79 361.722 235.841 363.967 236.636 367.751C237.431 371.535 235.67 375.424 232.702 376.438C229.733 377.452 226.682 375.206 225.887 371.422Z" fill="url(#paint40_radial_2328_10733)" fill-opacity="0.36" style="mix-blend-mode:color-dodge"/>
<path d="M230.542 370.096C230.456 369.69 230.645 369.274 230.963 369.165C231.281 369.056 231.608 369.297 231.693 369.702C231.779 370.108 231.59 370.525 231.272 370.633C230.954 370.742 230.627 370.501 230.542 370.096Z" fill="#FFD500"/>
<path d="M305.93 261.366C305.135 257.582 306.896 253.693 309.864 252.679C312.833 251.665 315.884 253.911 316.679 257.694C317.474 261.478 315.713 265.367 312.745 266.381C309.776 267.395 306.725 265.15 305.93 261.366Z" fill="url(#paint41_radial_2328_10733)" fill-opacity="0.36" style="mix-blend-mode:color-dodge"/>
<path d="M310.589 260.037C310.503 259.632 310.692 259.215 311.01 259.107C311.328 258.998 311.655 259.238 311.74 259.644C311.825 260.049 311.637 260.466 311.319 260.575C311.001 260.683 310.674 260.443 310.589 260.037Z" fill="#FFD500"/>
<path d="M319.715 165.733C318.92 161.949 320.681 158.06 323.65 157.046C326.618 156.032 329.669 158.278 330.464 162.061C331.26 165.845 329.498 169.734 326.53 170.748C323.562 171.762 320.511 169.517 319.715 165.733Z" fill="url(#paint42_radial_2328_10733)" fill-opacity="0.36" style="mix-blend-mode:color-dodge"/>
<path d="M324.372 164.403C324.287 163.998 324.475 163.581 324.793 163.473C325.111 163.364 325.438 163.605 325.523 164.01C325.609 164.415 325.42 164.832 325.102 164.941C324.784 165.049 324.457 164.809 324.372 164.403Z" fill="#FFD500"/>
<path d="M363.037 139.706C362.242 135.922 364.004 132.033 366.972 131.019C369.94 130.005 372.991 132.25 373.786 136.034C374.582 139.818 372.82 143.707 369.852 144.721C366.884 145.735 363.833 143.489 363.037 139.706Z" fill="url(#paint43_radial_2328_10733)" fill-opacity="0.36" style="mix-blend-mode:color-dodge"/>
<path d="M367.696 138.38C367.611 137.975 367.799 137.558 368.118 137.449C368.436 137.341 368.762 137.581 368.848 137.987C368.933 138.392 368.744 138.809 368.426 138.917C368.108 139.026 367.781 138.785 367.696 138.38Z" fill="#FFD500"/>
<path d="M245.181 178.364C244.179 173.601 246.397 168.706 250.133 167.429C253.869 166.153 257.71 168.98 258.711 173.742C259.712 178.505 257.495 183.401 253.758 184.677C250.022 185.953 246.182 183.127 245.181 178.364Z" fill="url(#paint44_radial_2328_10733)" fill-opacity="0.36" style="mix-blend-mode:color-dodge"/>
<path d="M251.042 176.689C250.934 176.179 251.172 175.655 251.572 175.518C251.973 175.381 252.384 175.684 252.491 176.194C252.599 176.704 252.361 177.229 251.961 177.366C251.56 177.502 251.149 177.2 251.042 176.689Z" fill="#FFD500"/>
<path d="M247.472 67.5651C246.47 62.8023 248.688 57.9068 252.424 56.6306C256.16 55.3544 260.001 58.1808 261.002 62.9436C262.003 67.7064 259.786 72.6019 256.049 73.8781C252.313 75.1543 248.473 72.3279 247.472 67.5651Z" fill="url(#paint45_radial_2328_10733)" fill-opacity="0.36" style="mix-blend-mode:color-dodge"/>
<path d="M253.335 65.8939C253.227 65.3836 253.465 64.8591 253.865 64.7224C254.266 64.5856 254.677 64.8885 254.784 65.3988C254.892 65.9091 254.654 66.4336 254.254 66.5703C253.853 66.7071 253.442 66.4042 253.335 65.8939Z" fill="#FFD500"/>
<path d="M175.862 43.1124C174.861 38.3497 177.078 33.4541 180.815 32.178C184.551 30.9018 188.391 33.7282 189.392 38.491C190.394 43.2538 188.176 48.1493 184.44 49.4255C180.704 50.7017 176.863 47.8752 175.862 43.1124Z" fill="url(#paint46_radial_2328_10733)" fill-opacity="0.36" style="mix-blend-mode:color-dodge"/>
<path d="M181.725 41.4408C181.618 40.9305 181.856 40.406 182.256 40.2693C182.656 40.1325 183.068 40.4354 183.175 40.9457C183.282 41.456 183.045 41.9805 182.644 42.1172C182.244 42.2539 181.833 41.9511 181.725 41.4408Z" fill="#FFD500"/>
<path d="M241.02 218.772C240.019 214.009 242.236 209.114 245.973 207.838C249.709 206.561 253.549 209.388 254.551 214.151C255.552 218.913 253.334 223.809 249.598 225.085C245.862 226.361 242.021 223.535 241.02 218.772Z" fill="url(#paint47_radial_2328_10733)" fill-opacity="0.36" style="mix-blend-mode:color-dodge"/>
<path d="M246.883 217.1C246.776 216.589 247.014 216.065 247.414 215.928C247.814 215.791 248.226 216.094 248.333 216.604C248.44 217.115 248.203 217.639 247.803 217.776C247.402 217.913 246.991 217.61 246.883 217.1Z" fill="#FFD500"/>
<path d="M158.69 250.782C157.689 246.02 159.906 241.124 163.643 239.848C167.379 238.572 171.219 241.398 172.22 246.161C173.222 250.924 171.004 255.819 167.268 257.095C163.532 258.372 159.691 255.545 158.69 250.782Z" fill="url(#paint48_radial_2328_10733)" fill-opacity="0.36" style="mix-blend-mode:color-dodge"/>
<path d="M164.553 249.107C164.446 248.597 164.684 248.072 165.084 247.936C165.484 247.799 165.896 248.102 166.003 248.612C166.11 249.122 165.873 249.647 165.472 249.784C165.072 249.92 164.661 249.618 164.553 249.107Z" fill="#FFD500"/>
<path d="M58.3934 99.5231C57.3923 94.7603 59.6095 89.8648 63.3458 88.5886C67.0821 87.3124 70.9225 90.1389 71.9236 94.9016C72.9248 99.6644 70.7075 104.56 66.9712 105.836C63.235 107.112 59.3945 104.286 58.3934 99.5231Z" fill="url(#paint49_radial_2328_10733)" fill-opacity="0.36" style="mix-blend-mode:color-dodge"/>
<path d="M64.2565 97.8471C64.1492 97.3368 64.3868 96.8122 64.7871 96.6755C65.1874 96.5388 65.5989 96.8416 65.7062 97.3519C65.8134 97.8622 65.5759 98.3867 65.1756 98.5235C64.7752 98.6602 64.3638 98.3574 64.2565 97.8471Z" fill="#FFD500"/>
<path d="M110.856 242.24C110.06 238.456 111.822 234.567 114.79 233.553C117.758 232.539 120.809 234.785 121.605 238.568C122.4 242.352 120.639 246.241 117.67 247.255C114.702 248.269 111.651 246.024 110.856 242.24Z" fill="url(#paint50_radial_2328_10733)" fill-opacity="0.36" style="mix-blend-mode:color-dodge"/>
<path d="M115.51 240.913C115.425 240.507 115.614 240.091 115.932 239.982C116.25 239.873 116.577 240.114 116.662 240.519C116.747 240.925 116.559 241.341 116.241 241.45C115.923 241.559 115.596 241.318 115.51 240.913Z" fill="#FFD500"/>
<path d="M190.899 132.184C190.103 128.4 191.865 124.511 194.833 123.497C197.801 122.483 200.852 124.728 201.648 128.512C202.443 132.296 200.682 136.185 197.713 137.199C194.745 138.213 191.694 135.967 190.899 132.184Z" fill="url(#paint51_radial_2328_10733)" fill-opacity="0.36" style="mix-blend-mode:color-dodge"/>
<path d="M195.557 130.855C195.472 130.45 195.661 130.033 195.979 129.924C196.297 129.816 196.624 130.056 196.709 130.462C196.794 130.867 196.605 131.284 196.287 131.392C195.969 131.501 195.643 131.261 195.557 130.855Z" fill="#FFD500"/>
<path d="M204.684 36.5509C203.889 32.7671 205.65 28.8779 208.618 27.864C211.587 26.8502 214.638 29.0956 215.433 32.8794C216.228 36.6631 214.467 40.5524 211.499 41.5662C208.53 42.5801 205.479 40.3346 204.684 36.5509Z" fill="url(#paint52_radial_2328_10733)" fill-opacity="0.36" style="mix-blend-mode:color-dodge"/>
<path d="M209.341 35.2218C209.255 34.8164 209.444 34.3997 209.762 34.2911C210.08 34.1825 210.407 34.423 210.492 34.8285C210.577 35.2339 210.389 35.6506 210.071 35.7592C209.753 35.8678 209.426 35.6272 209.341 35.2218Z" fill="#FFD500"/>
<path d="M248.004 10.523C247.209 6.73927 248.97 2.85004 251.939 1.83618C254.907 0.82233 257.958 3.06778 258.753 6.85154C259.549 10.6353 257.787 14.5245 254.819 15.5384C251.851 16.5522 248.8 14.3068 248.004 10.523Z" fill="url(#paint53_radial_2328_10733)" fill-opacity="0.36" style="mix-blend-mode:color-dodge"/>
<path d="M252.663 9.19644C252.578 8.79103 252.766 8.37433 253.084 8.2657C253.402 8.15708 253.729 8.39766 253.814 8.80306C253.9 9.20847 253.711 9.62517 253.393 9.7338C253.075 9.84242 252.748 9.60184 252.663 9.19644Z" fill="#FFD500"/>
<path d="M282.907 176.561C282.111 172.777 283.873 168.888 286.841 167.874C289.809 166.86 292.86 169.105 293.656 172.889C294.451 176.673 292.689 180.562 289.721 181.576C286.753 182.59 283.702 180.344 282.907 176.561Z" fill="url(#paint54_radial_2328_10733)" fill-opacity="0.36" style="mix-blend-mode:color-dodge"/>
<path d="M287.565 175.23C287.48 174.824 287.669 174.408 287.987 174.299C288.305 174.19 288.632 174.431 288.717 174.836C288.802 175.242 288.613 175.658 288.295 175.767C287.977 175.876 287.65 175.635 287.565 175.23Z" fill="#FFD500"/>
<path d="M143.35 225.286C142.349 220.523 144.567 215.628 148.303 214.352C152.039 213.076 155.88 215.902 156.881 220.665C157.882 225.428 155.665 230.323 151.928 231.599C148.192 232.875 144.352 230.049 143.35 225.286Z" fill="url(#paint55_radial_2328_10733)" fill-opacity="0.46" style="mix-blend-mode:color-dodge"/>
<path d="M149.212 223.611C149.104 223.101 149.342 222.576 149.742 222.44C150.143 222.303 150.554 222.606 150.661 223.116C150.769 223.626 150.531 224.151 150.131 224.288C149.73 224.424 149.319 224.122 149.212 223.611Z" fill="#FFD500"/>
<path d="M145.641 114.487C144.64 109.725 146.858 104.829 150.594 103.553C154.33 102.277 158.171 105.103 159.172 109.866C160.173 114.629 157.956 119.524 154.219 120.8C150.483 122.077 146.643 119.25 145.641 114.487Z" fill="url(#paint56_radial_2328_10733)" fill-opacity="0.46" style="mix-blend-mode:color-dodge"/>
<path d="M151.505 112.816C151.397 112.306 151.635 111.781 152.035 111.645C152.435 111.508 152.847 111.811 152.954 112.321C153.061 112.831 152.824 113.356 152.424 113.493C152.023 113.629 151.612 113.327 151.505 112.816Z" fill="#FFD500"/>
<path d="M74.0321 90.0333C73.0309 85.2706 75.2482 80.375 78.9845 79.0989C82.7208 77.8227 86.5612 80.6491 87.5623 85.4119C88.5634 90.1747 86.3462 95.0702 82.6099 96.3464C78.8736 97.6226 75.0332 94.7961 74.0321 90.0333Z" fill="url(#paint57_radial_2328_10733)" fill-opacity="0.46" style="mix-blend-mode:color-dodge"/>
<path d="M79.8952 88.3607C79.7879 87.8504 80.0255 87.3259 80.4258 87.1892C80.8261 87.0524 81.2376 87.3553 81.3448 87.8656C81.4521 88.3759 81.2145 88.9004 80.8142 89.0371C80.4139 89.1739 80.0024 88.871 79.8952 88.3607Z" fill="#FFD500"/>
<path d="M139.19 265.693C138.189 260.93 140.406 256.035 144.143 254.759C147.879 253.482 151.719 256.309 152.72 261.072C153.722 265.834 151.504 270.73 147.768 272.006C144.032 273.282 140.191 270.456 139.19 265.693Z" fill="url(#paint58_radial_2328_10733)" fill-opacity="0.46" style="mix-blend-mode:color-dodge"/>
<path d="M145.053 264.021C144.946 263.511 145.184 262.986 145.584 262.849C145.984 262.713 146.396 263.015 146.503 263.526C146.61 264.036 146.373 264.561 145.972 264.697C145.572 264.834 145.161 264.531 145.053 264.021Z" fill="#FFD500"/>
<path d="M56.8602 297.704C55.8591 292.941 58.0763 288.046 61.8126 286.77C65.5489 285.494 69.3893 288.32 70.3904 293.083C71.3915 297.846 69.1743 302.741 65.438 304.017C61.7018 305.293 57.8613 302.467 56.8602 297.704Z" fill="url(#paint59_radial_2328_10733)" fill-opacity="0.46" style="mix-blend-mode:color-dodge"/>
<path d="M62.7233 296.03C62.616 295.519 62.8536 294.995 63.2539 294.858C63.6542 294.721 64.0657 295.024 64.173 295.535C64.2802 296.045 64.0427 296.569 63.6424 296.706C63.242 296.843 62.8306 296.54 62.7233 296.03Z" fill="#FFD500"/>
<path d="M9.02575 289.161C8.2304 285.377 9.9919 281.488 12.9602 280.474C15.9284 279.46 18.9794 281.705 19.7748 285.489C20.5701 289.273 18.8086 293.162 15.8403 294.176C12.8721 295.19 9.82109 292.944 9.02575 289.161Z" fill="url(#paint60_radial_2328_10733)" fill-opacity="0.46" style="mix-blend-mode:color-dodge"/>
<path d="M13.6804 287.834C13.5951 287.429 13.7839 287.012 14.1019 286.903C14.4199 286.795 14.7468 287.035 14.832 287.441C14.9172 287.846 14.7285 288.263 14.4105 288.371C14.0925 288.48 13.7656 288.24 13.6804 287.834Z" fill="#FFD500"/>
<path d="M89.0687 179.105C88.2734 175.321 90.0349 171.432 93.0031 170.418C95.9714 169.404 99.0224 171.65 99.8177 175.434C100.613 179.217 98.8516 183.107 95.8833 184.12C92.9151 185.134 89.8641 182.889 89.0687 179.105Z" fill="url(#paint61_radial_2328_10733)" fill-opacity="0.46" style="mix-blend-mode:color-dodge"/>
<path d="M93.7272 177.776C93.642 177.371 93.8307 176.954 94.1488 176.845C94.4668 176.737 94.7937 176.977 94.8789 177.383C94.9641 177.788 94.7754 178.205 94.4574 178.313C94.1393 178.422 93.8124 178.181 93.7272 177.776Z" fill="#FFD500"/>
<path d="M102.854 83.4722C102.059 79.6885 103.82 75.7993 106.788 74.7854C109.757 73.7715 112.808 76.017 113.603 79.8008C114.398 83.5845 112.637 87.4737 109.668 88.4876C106.7 89.5015 103.649 87.256 102.854 83.4722Z" fill="url(#paint62_radial_2328_10733)" fill-opacity="0.46" style="mix-blend-mode:color-dodge"/>
<path d="M107.51 82.1427C107.425 81.7373 107.614 81.3206 107.932 81.212C108.25 81.1034 108.577 81.3439 108.662 81.7494C108.747 82.1548 108.559 82.5715 108.241 82.6801C107.923 82.7887 107.596 82.5481 107.51 82.1427Z" fill="#FFD500"/>
<path d="M146.174 57.4444C145.379 53.6607 147.14 49.7714 150.109 48.7576C153.077 47.7437 156.128 49.9892 156.923 53.7729C157.719 57.5567 155.957 61.4459 152.989 62.4598C150.021 63.4736 146.97 61.2282 146.174 57.4444Z" fill="url(#paint63_radial_2328_10733)" fill-opacity="0.46" style="mix-blend-mode:color-dodge"/>
<path d="M150.833 56.1183C150.747 55.7129 150.936 55.2962 151.254 55.1876C151.572 55.079 151.899 55.3195 151.984 55.7249C152.07 56.1303 151.881 56.547 151.563 56.6557C151.245 56.7643 150.918 56.5237 150.833 56.1183Z" fill="#FFD500"/>
<path d="M181.077 223.482C180.281 219.698 182.043 215.809 185.011 214.795C187.979 213.781 191.03 216.026 191.826 219.81C192.621 223.594 190.859 227.483 187.891 228.497C184.923 229.511 181.872 227.265 181.077 223.482Z" fill="url(#paint64_radial_2328_10733)" fill-opacity="0.46" style="mix-blend-mode:color-dodge"/>
<path d="M185.735 222.151C185.65 221.745 185.839 221.328 186.157 221.22C186.475 221.111 186.802 221.352 186.887 221.757C186.972 222.163 186.783 222.579 186.465 222.688C186.147 222.797 185.82 222.556 185.735 222.151Z" fill="#FFD500"/>
<path d="M338.048 575.353C337.047 570.59 339.264 565.694 343 564.418C346.736 563.142 350.577 565.968 351.578 570.731C352.579 575.494 350.362 580.39 346.626 581.666C342.889 582.942 339.049 580.115 338.048 575.353Z" fill="url(#paint65_radial_2328_10733)" fill-opacity="0.58" style="mix-blend-mode:color-dodge"/>
<path d="M343.909 573.678C343.802 573.167 344.039 572.643 344.439 572.506C344.84 572.369 345.251 572.672 345.359 573.182C345.466 573.693 345.228 574.217 344.828 574.354C344.428 574.491 344.016 574.188 343.909 573.678Z" fill="#FFD500"/>
<path d="M340.339 464.554C339.338 459.791 341.555 454.896 345.291 453.619C349.027 452.343 352.868 455.17 353.869 459.932C354.87 464.695 352.653 469.591 348.917 470.867C345.18 472.143 341.34 469.317 340.339 464.554Z" fill="url(#paint66_radial_2328_10733)" fill-opacity="0.58" style="mix-blend-mode:color-dodge"/>
<path d="M346.202 462.882C346.095 462.371 346.332 461.847 346.732 461.71C347.133 461.573 347.544 461.876 347.651 462.387C347.759 462.897 347.521 463.421 347.121 463.558C346.721 463.695 346.309 463.392 346.202 462.882Z" fill="#FFD500"/>
<path d="M268.731 440.1C267.73 435.337 269.947 430.442 273.684 429.166C277.42 427.89 281.26 430.716 282.262 435.479C283.263 440.242 281.045 445.137 277.309 446.413C273.573 447.689 269.732 444.863 268.731 440.1Z" fill="url(#paint67_radial_2328_10733)" fill-opacity="0.58" style="mix-blend-mode:color-dodge"/>
<path d="M274.594 438.429C274.487 437.918 274.725 437.394 275.125 437.257C275.525 437.12 275.937 437.423 276.044 437.933C276.151 438.444 275.914 438.968 275.513 439.105C275.113 439.242 274.702 438.939 274.594 438.429Z" fill="#FFD500"/>
<path d="M333.888 615.76C332.886 610.997 335.104 606.102 338.84 604.825C342.576 603.549 346.417 606.376 347.418 611.138C348.419 615.901 346.202 620.797 342.465 622.073C338.729 623.349 334.889 620.523 333.888 615.76Z" fill="url(#paint68_radial_2328_10733)" fill-opacity="0.58" style="mix-blend-mode:color-dodge"/>
<path d="M339.751 614.087C339.643 613.577 339.881 613.052 340.281 612.916C340.682 612.779 341.093 613.082 341.2 613.592C341.308 614.102 341.07 614.627 340.67 614.764C340.269 614.9 339.858 614.598 339.751 614.087Z" fill="#FFD500"/>
<path d="M251.557 647.771C250.556 643.008 252.774 638.112 256.51 636.836C260.246 635.56 264.087 638.386 265.088 643.149C266.089 647.912 263.872 652.807 260.135 654.084C256.399 655.36 252.559 652.533 251.557 647.771Z" fill="url(#paint69_radial_2328_10733)" fill-opacity="0.58" style="mix-blend-mode:color-dodge"/>
<path d="M257.421 646.096C257.313 645.585 257.551 645.061 257.951 644.924C258.351 644.787 258.763 645.09 258.87 645.6C258.977 646.111 258.74 646.635 258.34 646.772C257.939 646.909 257.528 646.606 257.421 646.096Z" fill="#FFD500"/>
<path d="M151.261 496.511C150.259 491.748 152.477 486.853 156.213 485.576C159.949 484.3 163.79 487.127 164.791 491.889C165.792 496.652 163.575 501.548 159.838 502.824C156.102 504.1 152.262 501.274 151.261 496.511Z" fill="url(#paint70_radial_2328_10733)" fill-opacity="0.58" style="mix-blend-mode:color-dodge"/>
<path d="M157.124 494.835C157.016 494.325 157.254 493.8 157.654 493.663C158.055 493.527 158.466 493.829 158.573 494.34C158.681 494.85 158.443 495.375 158.043 495.511C157.642 495.648 157.231 495.345 157.124 494.835Z" fill="#FFD500"/>
<path d="M203.723 639.228C202.928 635.444 204.689 631.555 207.657 630.541C210.626 629.527 213.677 631.772 214.472 635.556C215.267 639.34 213.506 643.229 210.538 644.243C207.569 645.257 204.518 643.011 203.723 639.228Z" fill="url(#paint71_radial_2328_10733)" fill-opacity="0.58" style="mix-blend-mode:color-dodge"/>
<path d="M208.378 637.901C208.292 637.496 208.481 637.079 208.799 636.97C209.117 636.862 209.444 637.102 209.529 637.508C209.615 637.913 209.426 638.33 209.108 638.438C208.79 638.547 208.463 638.306 208.378 637.901Z" fill="#FFD500"/>
<path d="M283.766 529.171C282.971 525.388 284.732 521.498 287.7 520.485C290.669 519.471 293.72 521.716 294.515 525.5C295.31 529.284 293.549 533.173 290.581 534.187C287.612 535.201 284.561 532.955 283.766 529.171Z" fill="url(#paint72_radial_2328_10733)" fill-opacity="0.58" style="mix-blend-mode:color-dodge"/>
<path d="M288.424 527.843C288.339 527.438 288.528 527.021 288.846 526.912C289.164 526.804 289.491 527.044 289.576 527.45C289.661 527.855 289.473 528.272 289.155 528.38C288.837 528.489 288.51 528.248 288.424 527.843Z" fill="#FFD500"/>
<path d="M297.551 433.539C296.756 429.755 298.517 425.866 301.486 424.852C304.454 423.838 307.505 426.083 308.3 429.867C309.095 433.651 307.334 437.54 304.366 438.554C301.397 439.568 298.346 437.322 297.551 433.539Z" fill="url(#paint73_radial_2328_10733)" fill-opacity="0.58" style="mix-blend-mode:color-dodge"/>
<path d="M302.208 432.21C302.122 431.804 302.311 431.388 302.629 431.279C302.947 431.17 303.274 431.411 303.359 431.816C303.445 432.222 303.256 432.638 302.938 432.747C302.62 432.856 302.293 432.615 302.208 432.21Z" fill="#FFD500"/>
<path d="M340.871 407.511C340.076 403.727 341.838 399.838 344.806 398.824C347.774 397.81 350.825 400.056 351.62 403.839C352.416 407.623 350.654 411.512 347.686 412.526C344.718 413.54 341.667 411.295 340.871 407.511Z" fill="url(#paint74_radial_2328_10733)" fill-opacity="0.58" style="mix-blend-mode:color-dodge"/>
<path d="M345.53 406.185C345.445 405.78 345.633 405.363 345.952 405.254C346.27 405.146 346.596 405.386 346.682 405.792C346.767 406.197 346.578 406.614 346.26 406.723C345.942 406.831 345.615 406.591 345.53 406.185Z" fill="#FFD500"/>
<path d="M375.774 573.548C374.978 569.765 376.74 565.875 379.708 564.862C382.676 563.848 385.727 566.093 386.523 569.877C387.318 573.661 385.557 577.55 382.588 578.564C379.62 579.578 376.569 577.332 375.774 573.548Z" fill="url(#paint75_radial_2328_10733)" fill-opacity="0.58" style="mix-blend-mode:color-dodge"/>
</g>
<defs>
<radialGradient id="paint0_radial_2328_10733" cx="0" cy="0" r="1" gradientUnits="userSpaceOnUse" gradientTransform="translate(84.5608 227.58) rotate(90) scale(25.7168 3.79068)">
<stop stop-color="#FFF8F1"/>
<stop offset="0.06" stop-color="#DCD5CF" stop-opacity="0.86"/>
<stop offset="0.16" stop-color="#A8A49F" stop-opacity="0.66"/>
<stop offset="0.26" stop-color="#7B7874" stop-opacity="0.49"/>
<stop offset="0.37" stop-color="#555350" stop-opacity="0.34"/>
<stop offset="0.48" stop-color="#363533" stop-opacity="0.21"/>
<stop offset="0.59" stop-color="#1E1D1C" stop-opacity="0.12"/>
<stop offset="0.71" stop-color="#0D0C0C" stop-opacity="0.05"/>
<stop offset="0.84" stop-color="#030303" stop-opacity="0.01"/>
<stop offset="1" stop-opacity="0"/>
</radialGradient>
<radialGradient id="paint1_radial_2328_10733" cx="0" cy="0" r="1" gradientUnits="userSpaceOnUse" gradientTransform="translate(85.2701 227.066) rotate(180) scale(25.2712 3.85752)">
<stop stop-color="#FFF8F1"/>
<stop offset="0.06" stop-color="#DCD5CF" stop-opacity="0.86"/>
<stop offset="0.16" stop-color="#A8A49F" stop-opacity="0.66"/>
<stop offset="0.26" stop-color="#7B7874" stop-opacity="0.49"/>
<stop offset="0.37" stop-color="#555350" stop-opacity="0.34"/>
<stop offset="0.48" stop-color="#363533" stop-opacity="0.21"/>
<stop offset="0.59" stop-color="#1E1D1C" stop-opacity="0.12"/>
<stop offset="0.71" stop-color="#0D0C0C" stop-opacity="0.05"/>
<stop offset="0.84" stop-color="#030303" stop-opacity="0.01"/>
<stop offset="1" stop-opacity="0"/>
</radialGradient>
<radialGradient id="paint2_radial_2328_10733" cx="0" cy="0" r="1" gradientUnits="userSpaceOnUse" gradientTransform="translate(204.721 188.91) rotate(90) scale(20.002 2.99264)">
<stop stop-color="#FFF8F1"/>
<stop offset="0.06" stop-color="#DCD5CF" stop-opacity="0.86"/>
<stop offset="0.16" stop-color="#A8A49F" stop-opacity="0.66"/>
<stop offset="0.26" stop-color="#7B7874" stop-opacity="0.49"/>
<stop offset="0.37" stop-color="#555350" stop-opacity="0.34"/>
<stop offset="0.48" stop-color="#363533" stop-opacity="0.21"/>
<stop offset="0.59" stop-color="#1E1D1C" stop-opacity="0.12"/>
<stop offset="0.71" stop-color="#0D0C0C" stop-opacity="0.05"/>
<stop offset="0.84" stop-color="#030303" stop-opacity="0.01"/>
<stop offset="1" stop-opacity="0"/>
</radialGradient>
<radialGradient id="paint3_radial_2328_10733" cx="0" cy="0" r="1" gradientUnits="userSpaceOnUse" gradientTransform="translate(205.282 188.51) rotate(180) scale(19.9509 3.00029)">
<stop stop-color="#FFF8F1"/>
<stop offset="0.06" stop-color="#DCD5CF" stop-opacity="0.86"/>
<stop offset="0.16" stop-color="#A8A49F" stop-opacity="0.66"/>
<stop offset="0.26" stop-color="#7B7874" stop-opacity="0.49"/>
<stop offset="0.37" stop-color="#555350" stop-opacity="0.34"/>
<stop offset="0.48" stop-color="#363533" stop-opacity="0.21"/>
<stop offset="0.59" stop-color="#1E1D1C" stop-opacity="0.12"/>
<stop offset="0.71" stop-color="#0D0C0C" stop-opacity="0.05"/>
<stop offset="0.84" stop-color="#030303" stop-opacity="0.01"/>
<stop offset="1" stop-opacity="0"/>
</radialGradient>
<radialGradient id="paint4_radial_2328_10733" cx="0" cy="0" r="1" gradientUnits="userSpaceOnUse" gradientTransform="translate(282.791 166.516) rotate(90) scale(20.002 2.99264)">
<stop stop-color="#FFF8F1"/>
<stop offset="0.06" stop-color="#DCD5CF" stop-opacity="0.86"/>
<stop offset="0.16" stop-color="#A8A49F" stop-opacity="0.66"/>
<stop offset="0.26" stop-color="#7B7874" stop-opacity="0.49"/>
<stop offset="0.37" stop-color="#555350" stop-opacity="0.34"/>
<stop offset="0.48" stop-color="#363533" stop-opacity="0.21"/>
<stop offset="0.59" stop-color="#1E1D1C" stop-opacity="0.12"/>
<stop offset="0.71" stop-color="#0D0C0C" stop-opacity="0.05"/>
<stop offset="0.84" stop-color="#030303" stop-opacity="0.01"/>
<stop offset="1" stop-opacity="0"/>
</radialGradient>
<radialGradient id="paint5_radial_2328_10733" cx="0" cy="0" r="1" gradientUnits="userSpaceOnUse" gradientTransform="translate(283.352 166.115) rotate(180) scale(19.9509 3.00029)">
<stop stop-color="#FFF8F1"/>
<stop offset="0.06" stop-color="#DCD5CF" stop-opacity="0.86"/>
<stop offset="0.16" stop-color="#A8A49F" stop-opacity="0.66"/>
<stop offset="0.26" stop-color="#7B7874" stop-opacity="0.49"/>
<stop offset="0.37" stop-color="#555350" stop-opacity="0.34"/>
<stop offset="0.48" stop-color="#363533" stop-opacity="0.21"/>
<stop offset="0.59" stop-color="#1E1D1C" stop-opacity="0.12"/>
<stop offset="0.71" stop-color="#0D0C0C" stop-opacity="0.05"/>
<stop offset="0.84" stop-color="#030303" stop-opacity="0.01"/>
<stop offset="1" stop-opacity="0"/>
</radialGradient>
<radialGradient id="paint6_radial_2328_10733" cx="0" cy="0" r="1" gradientUnits="userSpaceOnUse" gradientTransform="translate(256.815 239.909) rotate(90) scale(20.002 2.99264)">
<stop stop-color="#FFF8F1"/>
<stop offset="0.06" stop-color="#DCD5CF" stop-opacity="0.86"/>
<stop offset="0.16" stop-color="#A8A49F" stop-opacity="0.66"/>
<stop offset="0.26" stop-color="#7B7874" stop-opacity="0.49"/>
<stop offset="0.37" stop-color="#555350" stop-opacity="0.34"/>
<stop offset="0.48" stop-color="#363533" stop-opacity="0.21"/>
<stop offset="0.59" stop-color="#1E1D1C" stop-opacity="0.12"/>
<stop offset="0.71" stop-color="#0D0C0C" stop-opacity="0.05"/>
<stop offset="0.84" stop-color="#030303" stop-opacity="0.01"/>
<stop offset="1" stop-opacity="0"/>
</radialGradient>
<radialGradient id="paint7_radial_2328_10733" cx="0" cy="0" r="1" gradientUnits="userSpaceOnUse" gradientTransform="translate(257.376 239.508) rotate(180) scale(19.9509 3.00029)">
<stop stop-color="#FFF8F1"/>
<stop offset="0.06" stop-color="#DCD5CF" stop-opacity="0.86"/>
<stop offset="0.16" stop-color="#A8A49F" stop-opacity="0.66"/>
<stop offset="0.26" stop-color="#7B7874" stop-opacity="0.49"/>
<stop offset="0.37" stop-color="#555350" stop-opacity="0.34"/>
<stop offset="0.48" stop-color="#363533" stop-opacity="0.21"/>
<stop offset="0.59" stop-color="#1E1D1C" stop-opacity="0.12"/>
<stop offset="0.71" stop-color="#0D0C0C" stop-opacity="0.05"/>
<stop offset="0.84" stop-color="#030303" stop-opacity="0.01"/>
<stop offset="1" stop-opacity="0"/>
</radialGradient>
<radialGradient id="paint8_radial_2328_10733" cx="0" cy="0" r="1" gradientUnits="userSpaceOnUse" gradientTransform="translate(168.909 104.073) rotate(90) scale(30.0029 4.58871)">
<stop stop-color="#FFF8F1"/>
<stop offset="0.06" stop-color="#DCD5CF" stop-opacity="0.86"/>
<stop offset="0.16" stop-color="#A8A49F" stop-opacity="0.66"/>
<stop offset="0.26" stop-color="#7B7874" stop-opacity="0.49"/>
<stop offset="0.37" stop-color="#555350" stop-opacity="0.34"/>
<stop offset="0.48" stop-color="#363533" stop-opacity="0.21"/>
<stop offset="0.59" stop-color="#1E1D1C" stop-opacity="0.12"/>
<stop offset="0.71" stop-color="#0D0C0C" stop-opacity="0.05"/>
<stop offset="0.84" stop-color="#030303" stop-opacity="0.01"/>
<stop offset="1" stop-opacity="0"/>
</radialGradient>
<radialGradient id="paint9_radial_2328_10733" cx="0" cy="0" r="1" gradientUnits="userSpaceOnUse" gradientTransform="translate(169.768 103.474) rotate(180) scale(30.5914 4.50044)">
<stop stop-color="#FFF8F1"/>
<stop offset="0.06" stop-color="#DCD5CF" stop-opacity="0.86"/>
<stop offset="0.16" stop-color="#A8A49F" stop-opacity="0.66"/>
<stop offset="0.26" stop-color="#7B7874" stop-opacity="0.49"/>
<stop offset="0.37" stop-color="#555350" stop-opacity="0.34"/>
<stop offset="0.48" stop-color="#363533" stop-opacity="0.21"/>
<stop offset="0.59" stop-color="#1E1D1C" stop-opacity="0.12"/>
<stop offset="0.71" stop-color="#0D0C0C" stop-opacity="0.05"/>
<stop offset="0.84" stop-color="#030303" stop-opacity="0.01"/>
<stop offset="1" stop-opacity="0"/>
</radialGradient>
<radialGradient id="paint10_radial_2328_10733" cx="0" cy="0" r="1" gradientUnits="userSpaceOnUse" gradientTransform="translate(118.231 164.969) rotate(90) scale(17.1445 2.66012)">
<stop stop-color="#FFF8F1"/>
<stop offset="0.06" stop-color="#DCD5CF" stop-opacity="0.86"/>
<stop offset="0.16" stop-color="#A8A49F" stop-opacity="0.66"/>
<stop offset="0.26" stop-color="#7B7874" stop-opacity="0.49"/>
<stop offset="0.37" stop-color="#555350" stop-opacity="0.34"/>
<stop offset="0.48" stop-color="#363533" stop-opacity="0.21"/>
<stop offset="0.59" stop-color="#1E1D1C" stop-opacity="0.12"/>
<stop offset="0.71" stop-color="#0D0C0C" stop-opacity="0.05"/>
<stop offset="0.84" stop-color="#030303" stop-opacity="0.01"/>
<stop offset="1" stop-opacity="0"/>
</radialGradient>
<radialGradient id="paint11_radial_2328_10733" cx="0" cy="0" r="1" gradientUnits="userSpaceOnUse" gradientTransform="translate(118.73 164.626) rotate(180) scale(17.7342 2.57168)">
<stop stop-color="#FFF8F1"/>
<stop offset="0.06" stop-color="#DCD5CF" stop-opacity="0.86"/>
<stop offset="0.16" stop-color="#A8A49F" stop-opacity="0.66"/>
<stop offset="0.26" stop-color="#7B7874" stop-opacity="0.49"/>
<stop offset="0.37" stop-color="#555350" stop-opacity="0.34"/>
<stop offset="0.48" stop-color="#363533" stop-opacity="0.21"/>
<stop offset="0.59" stop-color="#1E1D1C" stop-opacity="0.12"/>
<stop offset="0.71" stop-color="#0D0C0C" stop-opacity="0.05"/>
<stop offset="0.84" stop-color="#030303" stop-opacity="0.01"/>
<stop offset="1" stop-opacity="0"/>
</radialGradient>
<radialGradient id="paint12_radial_2328_10733" cx="0" cy="0" r="1" gradientTransform="matrix(-1.81271 -8.62376 -6.76511 2.31073 207.555 311.041)" gradientUnits="userSpaceOnUse">
<stop stop-color="#502D82"/>
<stop offset="0.17" stop-color="#4C2B7C" stop-opacity="0.88"/>
<stop offset="0.51" stop-color="#44266E" stop-opacity="0.55"/>
<stop offset="0.97" stop-color="#361F58" stop-opacity="0.03"/>
<stop offset="1" stop-color="#361F57" stop-opacity="0"/>
</radialGradient>
<radialGradient id="paint13_radial_2328_10733" cx="0" cy="0" r="1" gradientTransform="matrix(-1.81271 -8.62376 -6.76511 2.31073 209.846 200.242)" gradientUnits="userSpaceOnUse">
<stop stop-color="#502D82"/>
<stop offset="0.17" stop-color="#4C2B7C" stop-opacity="0.88"/>
<stop offset="0.51" stop-color="#44266E" stop-opacity="0.55"/>
<stop offset="0.97" stop-color="#361F58" stop-opacity="0.03"/>
<stop offset="1" stop-color="#361F57" stop-opacity="0"/>
</radialGradient>
<radialGradient id="paint14_radial_2328_10733" cx="0" cy="0" r="1" gradientTransform="matrix(-1.81271 -8.62376 -6.76511 2.31073 138.239 175.788)" gradientUnits="userSpaceOnUse">
<stop stop-color="#502D82"/>
<stop offset="0.17" stop-color="#4C2B7C" stop-opacity="0.88"/>
<stop offset="0.51" stop-color="#44266E" stop-opacity="0.55"/>
<stop offset="0.97" stop-color="#361F58" stop-opacity="0.03"/>
<stop offset="1" stop-color="#361F57" stop-opacity="0"/>
</radialGradient>
<radialGradient id="paint15_radial_2328_10733" cx="0" cy="0" r="1" gradientTransform="matrix(-1.81271 -8.62376 -6.76511 2.31073 203.395 351.448)" gradientUnits="userSpaceOnUse">
<stop stop-color="#502D82"/>
<stop offset="0.17" stop-color="#4C2B7C" stop-opacity="0.88"/>
<stop offset="0.51" stop-color="#44266E" stop-opacity="0.55"/>
<stop offset="0.97" stop-color="#361F58" stop-opacity="0.03"/>
<stop offset="1" stop-color="#361F57" stop-opacity="0"/>
</radialGradient>
<radialGradient id="paint16_radial_2328_10733" cx="0" cy="0" r="1" gradientTransform="matrix(-1.81271 -8.62376 -6.76511 2.31073 121.065 383.458)" gradientUnits="userSpaceOnUse">
<stop stop-color="#502D82"/>
<stop offset="0.17" stop-color="#4C2B7C" stop-opacity="0.88"/>
<stop offset="0.51" stop-color="#44266E" stop-opacity="0.55"/>
<stop offset="0.97" stop-color="#361F58" stop-opacity="0.03"/>
<stop offset="1" stop-color="#361F57" stop-opacity="0"/>
</radialGradient>
<radialGradient id="paint17_radial_2328_10733" cx="0" cy="0" r="1" gradientTransform="matrix(-1.81271 -8.62376 -6.76511 2.31073 20.7679 232.199)" gradientUnits="userSpaceOnUse">
<stop stop-color="#502D82"/>
<stop offset="0.17" stop-color="#4C2B7C" stop-opacity="0.88"/>
<stop offset="0.51" stop-color="#44266E" stop-opacity="0.55"/>
<stop offset="0.97" stop-color="#361F58" stop-opacity="0.03"/>
<stop offset="1" stop-color="#361F57" stop-opacity="0"/>
</radialGradient>
<radialGradient id="paint18_radial_2328_10733" cx="0" cy="0" r="1" gradientTransform="matrix(-1.44009 -6.8511 -5.3745 1.83575 71.8397 375.391)" gradientUnits="userSpaceOnUse">
<stop stop-color="#502D82"/>
<stop offset="0.17" stop-color="#4C2B7C" stop-opacity="0.88"/>
<stop offset="0.51" stop-color="#44266E" stop-opacity="0.55"/>
<stop offset="0.97" stop-color="#361F58" stop-opacity="0.03"/>
<stop offset="1" stop-color="#361F57" stop-opacity="0"/>
</radialGradient>
<radialGradient id="paint19_radial_2328_10733" cx="0" cy="0" r="1" gradientTransform="matrix(-1.44009 -6.8511 -5.3745 1.83575 151.883 265.335)" gradientUnits="userSpaceOnUse">
<stop stop-color="#502D82"/>
<stop offset="0.17" stop-color="#4C2B7C" stop-opacity="0.88"/>
<stop offset="0.51" stop-color="#44266E" stop-opacity="0.55"/>
<stop offset="0.97" stop-color="#361F58" stop-opacity="0.03"/>
<stop offset="1" stop-color="#361F57" stop-opacity="0"/>
</radialGradient>
<radialGradient id="paint20_radial_2328_10733" cx="0" cy="0" r="1" gradientTransform="matrix(-1.44009 -6.8511 -5.3745 1.83575 165.668 169.701)" gradientUnits="userSpaceOnUse">
<stop stop-color="#502D82"/>
<stop offset="0.17" stop-color="#4C2B7C" stop-opacity="0.88"/>
<stop offset="0.51" stop-color="#44266E" stop-opacity="0.55"/>
<stop offset="0.97" stop-color="#361F58" stop-opacity="0.03"/>
<stop offset="1" stop-color="#361F57" stop-opacity="0"/>
</radialGradient>
<radialGradient id="paint21_radial_2328_10733" cx="0" cy="0" r="1" gradientTransform="matrix(-1.44009 -6.8511 -5.3745 1.83575 208.988 143.673)" gradientUnits="userSpaceOnUse">
<stop stop-color="#502D82"/>
<stop offset="0.17" stop-color="#4C2B7C" stop-opacity="0.88"/>
<stop offset="0.51" stop-color="#44266E" stop-opacity="0.55"/>
<stop offset="0.97" stop-color="#361F58" stop-opacity="0.03"/>
<stop offset="1" stop-color="#361F57" stop-opacity="0"/>
</radialGradient>
<radialGradient id="paint22_radial_2328_10733" cx="0" cy="0" r="1" gradientTransform="matrix(-1.44009 -6.8511 -5.3745 1.83575 243.89 309.711)" gradientUnits="userSpaceOnUse">
<stop stop-color="#502D82"/>
<stop offset="0.17" stop-color="#4C2B7C" stop-opacity="0.88"/>
<stop offset="0.51" stop-color="#44266E" stop-opacity="0.55"/>
<stop offset="0.97" stop-color="#361F58" stop-opacity="0.03"/>
<stop offset="1" stop-color="#361F57" stop-opacity="0"/>
</radialGradient>
<radialGradient id="paint23_radial_2328_10733" cx="0" cy="0" r="1" gradientTransform="matrix(-1.81271 -8.62376 -6.76511 2.31073 234.946 468.376)" gradientUnits="userSpaceOnUse">
<stop stop-color="#502D82"/>
<stop offset="0.17" stop-color="#4C2B7C" stop-opacity="0.88"/>
<stop offset="0.51" stop-color="#44266E" stop-opacity="0.55"/>
<stop offset="0.97" stop-color="#361F58" stop-opacity="0.03"/>
<stop offset="1" stop-color="#361F57" stop-opacity="0"/>
</radialGradient>
<radialGradient id="paint24_radial_2328_10733" cx="0" cy="0" r="1" gradientTransform="matrix(-1.81271 -8.62376 -6.76511 2.31073 237.237 357.578)" gradientUnits="userSpaceOnUse">
<stop stop-color="#502D82"/>
<stop offset="0.17" stop-color="#4C2B7C" stop-opacity="0.88"/>
<stop offset="0.51" stop-color="#44266E" stop-opacity="0.55"/>
<stop offset="0.97" stop-color="#361F58" stop-opacity="0.03"/>
<stop offset="1" stop-color="#361F57" stop-opacity="0"/>
</radialGradient>
<radialGradient id="paint25_radial_2328_10733" cx="0" cy="0" r="1" gradientTransform="matrix(-1.81271 -8.62376 -6.76511 2.31073 165.627 333.124)" gradientUnits="userSpaceOnUse">
<stop stop-color="#502D82"/>
<stop offset="0.17" stop-color="#4C2B7C" stop-opacity="0.88"/>
<stop offset="0.51" stop-color="#44266E" stop-opacity="0.55"/>
<stop offset="0.97" stop-color="#361F58" stop-opacity="0.03"/>
<stop offset="1" stop-color="#361F57" stop-opacity="0"/>
</radialGradient>
<radialGradient id="paint26_radial_2328_10733" cx="0" cy="0" r="1" gradientTransform="matrix(-1.81271 -8.62376 -6.76511 2.31073 230.785 508.785)" gradientUnits="userSpaceOnUse">
<stop stop-color="#502D82"/>
<stop offset="0.17" stop-color="#4C2B7C" stop-opacity="0.88"/>
<stop offset="0.51" stop-color="#44266E" stop-opacity="0.55"/>
<stop offset="0.97" stop-color="#361F58" stop-opacity="0.03"/>
<stop offset="1" stop-color="#361F57" stop-opacity="0"/>
</radialGradient>
<radialGradient id="paint27_radial_2328_10733" cx="0" cy="0" r="1" gradientTransform="matrix(-1.81271 -8.62376 -6.76511 2.31073 148.455 540.795)" gradientUnits="userSpaceOnUse">
<stop stop-color="#502D82"/>
<stop offset="0.17" stop-color="#4C2B7C" stop-opacity="0.88"/>
<stop offset="0.51" stop-color="#44266E" stop-opacity="0.55"/>
<stop offset="0.97" stop-color="#361F58" stop-opacity="0.03"/>
<stop offset="1" stop-color="#361F57" stop-opacity="0"/>
</radialGradient>
<radialGradient id="paint28_radial_2328_10733" cx="0" cy="0" r="1" gradientTransform="matrix(-1.81271 -8.62376 -6.76511 2.31073 48.1585 389.535)" gradientUnits="userSpaceOnUse">
<stop stop-color="#502D82"/>
<stop offset="0.17" stop-color="#4C2B7C" stop-opacity="0.88"/>
<stop offset="0.51" stop-color="#44266E" stop-opacity="0.55"/>
<stop offset="0.97" stop-color="#361F58" stop-opacity="0.03"/>
<stop offset="1" stop-color="#361F57" stop-opacity="0"/>
</radialGradient>
<radialGradient id="paint29_radial_2328_10733" cx="0" cy="0" r="1" gradientTransform="matrix(-1.44009 -6.8511 -5.3745 1.83575 99.2303 532.727)" gradientUnits="userSpaceOnUse">
<stop stop-color="#502D82"/>
<stop offset="0.17" stop-color="#4C2B7C" stop-opacity="0.88"/>
<stop offset="0.51" stop-color="#44266E" stop-opacity="0.55"/>
<stop offset="0.97" stop-color="#361F58" stop-opacity="0.03"/>
<stop offset="1" stop-color="#361F57" stop-opacity="0"/>
</radialGradient>
<radialGradient id="paint30_radial_2328_10733" cx="0" cy="0" r="1" gradientTransform="matrix(-1.44009 -6.8511 -5.3745 1.83575 179.273 422.671)" gradientUnits="userSpaceOnUse">
<stop stop-color="#502D82"/>
<stop offset="0.17" stop-color="#4C2B7C" stop-opacity="0.88"/>
<stop offset="0.51" stop-color="#44266E" stop-opacity="0.55"/>
<stop offset="0.97" stop-color="#361F58" stop-opacity="0.03"/>
<stop offset="1" stop-color="#361F57" stop-opacity="0"/>
</radialGradient>
<radialGradient id="paint31_radial_2328_10733" cx="0" cy="0" r="1" gradientTransform="matrix(-1.44009 -6.8511 -5.3745 1.83575 193.058 327.038)" gradientUnits="userSpaceOnUse">
<stop stop-color="#502D82"/>
<stop offset="0.17" stop-color="#4C2B7C" stop-opacity="0.88"/>
<stop offset="0.51" stop-color="#44266E" stop-opacity="0.55"/>
<stop offset="0.97" stop-color="#361F58" stop-opacity="0.03"/>
<stop offset="1" stop-color="#361F57" stop-opacity="0"/>
</radialGradient>
<radialGradient id="paint32_radial_2328_10733" cx="0" cy="0" r="1" gradientTransform="matrix(-1.44009 -6.8511 -5.3745 1.83575 236.379 301.01)" gradientUnits="userSpaceOnUse">
<stop stop-color="#502D82"/>
<stop offset="0.17" stop-color="#4C2B7C" stop-opacity="0.88"/>
<stop offset="0.51" stop-color="#44266E" stop-opacity="0.55"/>
<stop offset="0.97" stop-color="#361F58" stop-opacity="0.03"/>
<stop offset="1" stop-color="#361F57" stop-opacity="0"/>
</radialGradient>
<radialGradient id="paint33_radial_2328_10733" cx="0" cy="0" r="1" gradientTransform="matrix(-1.44009 -6.8511 -5.3745 1.83575 271.281 467.048)" gradientUnits="userSpaceOnUse">
<stop stop-color="#502D82"/>
<stop offset="0.17" stop-color="#4C2B7C" stop-opacity="0.88"/>
<stop offset="0.51" stop-color="#44266E" stop-opacity="0.55"/>
<stop offset="0.97" stop-color="#361F58" stop-opacity="0.03"/>
<stop offset="1" stop-color="#361F57" stop-opacity="0"/>
</radialGradient>
<radialGradient id="paint34_radial_2328_10733" cx="0" cy="0" r="1" gradientTransform="matrix(-1.81271 -8.62376 -6.76511 2.31073 366.979 305.236)" gradientUnits="userSpaceOnUse">
<stop stop-color="#502D82"/>
<stop offset="0.17" stop-color="#4C2B7C" stop-opacity="0.88"/>
<stop offset="0.51" stop-color="#44266E" stop-opacity="0.55"/>
<stop offset="0.97" stop-color="#361F58" stop-opacity="0.03"/>
<stop offset="1" stop-color="#361F57" stop-opacity="0"/>
</radialGradient>
<radialGradient id="paint35_radial_2328_10733" cx="0" cy="0" r="1" gradientTransform="matrix(-1.81271 -8.62376 -6.76511 2.31073 369.268 194.436)" gradientUnits="userSpaceOnUse">
<stop stop-color="#502D82"/>
<stop offset="0.17" stop-color="#4C2B7C" stop-opacity="0.88"/>
<stop offset="0.51" stop-color="#44266E" stop-opacity="0.55"/>
<stop offset="0.97" stop-color="#361F58" stop-opacity="0.03"/>
<stop offset="1" stop-color="#361F57" stop-opacity="0"/>
</radialGradient>
<radialGradient id="paint36_radial_2328_10733" cx="0" cy="0" r="1" gradientTransform="matrix(-1.81271 -8.62376 -6.76511 2.31073 297.66 169.984)" gradientUnits="userSpaceOnUse">
<stop stop-color="#502D82"/>
<stop offset="0.17" stop-color="#4C2B7C" stop-opacity="0.88"/>
<stop offset="0.51" stop-color="#44266E" stop-opacity="0.55"/>
<stop offset="0.97" stop-color="#361F58" stop-opacity="0.03"/>
<stop offset="1" stop-color="#361F57" stop-opacity="0"/>
</radialGradient>
<radialGradient id="paint37_radial_2328_10733" cx="0" cy="0" r="1" gradientTransform="matrix(-1.81271 -8.62376 -6.76511 2.31073 362.819 345.644)" gradientUnits="userSpaceOnUse">
<stop stop-color="#502D82"/>
<stop offset="0.17" stop-color="#4C2B7C" stop-opacity="0.88"/>
<stop offset="0.51" stop-color="#44266E" stop-opacity="0.55"/>
<stop offset="0.97" stop-color="#361F58" stop-opacity="0.03"/>
<stop offset="1" stop-color="#361F57" stop-opacity="0"/>
</radialGradient>
<radialGradient id="paint38_radial_2328_10733" cx="0" cy="0" r="1" gradientTransform="matrix(-1.81271 -8.62376 -6.76511 2.31073 280.487 377.654)" gradientUnits="userSpaceOnUse">
<stop stop-color="#502D82"/>
<stop offset="0.17" stop-color="#4C2B7C" stop-opacity="0.88"/>
<stop offset="0.51" stop-color="#44266E" stop-opacity="0.55"/>
<stop offset="0.97" stop-color="#361F58" stop-opacity="0.03"/>
<stop offset="1" stop-color="#361F57" stop-opacity="0"/>
</radialGradient>
<radialGradient id="paint39_radial_2328_10733" cx="0" cy="0" r="1" gradientTransform="matrix(-1.81271 -8.62376 -6.76511 2.31073 180.19 226.394)" gradientUnits="userSpaceOnUse">
<stop stop-color="#502D82"/>
<stop offset="0.17" stop-color="#4C2B7C" stop-opacity="0.88"/>
<stop offset="0.51" stop-color="#44266E" stop-opacity="0.55"/>
<stop offset="0.97" stop-color="#361F58" stop-opacity="0.03"/>
<stop offset="1" stop-color="#361F57" stop-opacity="0"/>
</radialGradient>
<radialGradient id="paint40_radial_2328_10733" cx="0" cy="0" r="1" gradientTransform="matrix(-1.44009 -6.8511 -5.3745 1.83575 231.262 369.587)" gradientUnits="userSpaceOnUse">
<stop stop-color="#502D82"/>
<stop offset="0.17" stop-color="#4C2B7C" stop-opacity="0.88"/>
<stop offset="0.51" stop-color="#44266E" stop-opacity="0.55"/>
<stop offset="0.97" stop-color="#361F58" stop-opacity="0.03"/>
<stop offset="1" stop-color="#361F57" stop-opacity="0"/>
</radialGradient>
<radialGradient id="paint41_radial_2328_10733" cx="0" cy="0" r="1" gradientTransform="matrix(-1.44009 -6.8511 -5.3745 1.83575 311.305 259.53)" gradientUnits="userSpaceOnUse">
<stop stop-color="#502D82"/>
<stop offset="0.17" stop-color="#4C2B7C" stop-opacity="0.88"/>
<stop offset="0.51" stop-color="#44266E" stop-opacity="0.55"/>
<stop offset="0.97" stop-color="#361F58" stop-opacity="0.03"/>
<stop offset="1" stop-color="#361F57" stop-opacity="0"/>
</radialGradient>
<radialGradient id="paint42_radial_2328_10733" cx="0" cy="0" r="1" gradientTransform="matrix(-1.44009 -6.8511 -5.3745 1.83575 325.09 163.897)" gradientUnits="userSpaceOnUse">
<stop stop-color="#502D82"/>
<stop offset="0.17" stop-color="#4C2B7C" stop-opacity="0.88"/>
<stop offset="0.51" stop-color="#44266E" stop-opacity="0.55"/>
<stop offset="0.97" stop-color="#361F58" stop-opacity="0.03"/>
<stop offset="1" stop-color="#361F57" stop-opacity="0"/>
</radialGradient>
<radialGradient id="paint43_radial_2328_10733" cx="0" cy="0" r="1" gradientTransform="matrix(-1.44009 -6.8511 -5.3745 1.83575 368.412 137.87)" gradientUnits="userSpaceOnUse">
<stop stop-color="#502D82"/>
<stop offset="0.17" stop-color="#4C2B7C" stop-opacity="0.88"/>
<stop offset="0.51" stop-color="#44266E" stop-opacity="0.55"/>
<stop offset="0.97" stop-color="#361F58" stop-opacity="0.03"/>
<stop offset="1" stop-color="#361F57" stop-opacity="0"/>
</radialGradient>
<radialGradient id="paint44_radial_2328_10733" cx="0" cy="0" r="1" gradientTransform="matrix(-1.81271 -8.62376 -6.76511 2.31073 251.946 176.053)" gradientUnits="userSpaceOnUse">
<stop stop-color="#502D82"/>
<stop offset="0.17" stop-color="#4C2B7C" stop-opacity="0.88"/>
<stop offset="0.51" stop-color="#44266E" stop-opacity="0.55"/>
<stop offset="0.97" stop-color="#361F58" stop-opacity="0.03"/>
<stop offset="1" stop-color="#361F57" stop-opacity="0"/>
</radialGradient>
<radialGradient id="paint45_radial_2328_10733" cx="0" cy="0" r="1" gradientTransform="matrix(-1.81271 -8.62376 -6.76511 2.31073 254.237 65.2544)" gradientUnits="userSpaceOnUse">
<stop stop-color="#502D82"/>
<stop offset="0.17" stop-color="#4C2B7C" stop-opacity="0.88"/>
<stop offset="0.51" stop-color="#44266E" stop-opacity="0.55"/>
<stop offset="0.97" stop-color="#361F58" stop-opacity="0.03"/>
<stop offset="1" stop-color="#361F57" stop-opacity="0"/>
</radialGradient>
<radialGradient id="paint46_radial_2328_10733" cx="0" cy="0" r="1" gradientTransform="matrix(-1.81271 -8.62376 -6.76511 2.31073 182.627 40.8017)" gradientUnits="userSpaceOnUse">
<stop stop-color="#502D82"/>
<stop offset="0.17" stop-color="#4C2B7C" stop-opacity="0.88"/>
<stop offset="0.51" stop-color="#44266E" stop-opacity="0.55"/>
<stop offset="0.97" stop-color="#361F58" stop-opacity="0.03"/>
<stop offset="1" stop-color="#361F57" stop-opacity="0"/>
</radialGradient>
<radialGradient id="paint47_radial_2328_10733" cx="0" cy="0" r="1" gradientTransform="matrix(-1.81271 -8.62376 -6.76511 2.31073 247.785 216.461)" gradientUnits="userSpaceOnUse">
<stop stop-color="#502D82"/>
<stop offset="0.17" stop-color="#4C2B7C" stop-opacity="0.88"/>
<stop offset="0.51" stop-color="#44266E" stop-opacity="0.55"/>
<stop offset="0.97" stop-color="#361F58" stop-opacity="0.03"/>
<stop offset="1" stop-color="#361F57" stop-opacity="0"/>
</radialGradient>
<radialGradient id="paint48_radial_2328_10733" cx="0" cy="0" r="1" gradientTransform="matrix(-1.81271 -8.62376 -6.76511 2.31073 165.455 248.472)" gradientUnits="userSpaceOnUse">
<stop stop-color="#502D82"/>
<stop offset="0.17" stop-color="#4C2B7C" stop-opacity="0.88"/>
<stop offset="0.51" stop-color="#44266E" stop-opacity="0.55"/>
<stop offset="0.97" stop-color="#361F58" stop-opacity="0.03"/>
<stop offset="1" stop-color="#361F57" stop-opacity="0"/>
</radialGradient>
<radialGradient id="paint49_radial_2328_10733" cx="0" cy="0" r="1" gradientTransform="matrix(-1.81271 -8.62376 -6.76511 2.31073 65.1585 97.2124)" gradientUnits="userSpaceOnUse">
<stop stop-color="#502D82"/>
<stop offset="0.17" stop-color="#4C2B7C" stop-opacity="0.88"/>
<stop offset="0.51" stop-color="#44266E" stop-opacity="0.55"/>
<stop offset="0.97" stop-color="#361F58" stop-opacity="0.03"/>
<stop offset="1" stop-color="#361F57" stop-opacity="0"/>
</radialGradient>
<radialGradient id="paint50_radial_2328_10733" cx="0" cy="0" r="1" gradientTransform="matrix(-1.44009 -6.8511 -5.3745 1.83575 116.23 240.404)" gradientUnits="userSpaceOnUse">
<stop stop-color="#502D82"/>
<stop offset="0.17" stop-color="#4C2B7C" stop-opacity="0.88"/>
<stop offset="0.51" stop-color="#44266E" stop-opacity="0.55"/>
<stop offset="0.97" stop-color="#361F58" stop-opacity="0.03"/>
<stop offset="1" stop-color="#361F57" stop-opacity="0"/>
</radialGradient>
<radialGradient id="paint51_radial_2328_10733" cx="0" cy="0" r="1" gradientTransform="matrix(-1.44009 -6.8511 -5.3745 1.83575 196.273 130.348)" gradientUnits="userSpaceOnUse">
<stop stop-color="#502D82"/>
<stop offset="0.17" stop-color="#4C2B7C" stop-opacity="0.88"/>
<stop offset="0.51" stop-color="#44266E" stop-opacity="0.55"/>
<stop offset="0.97" stop-color="#361F58" stop-opacity="0.03"/>
<stop offset="1" stop-color="#361F57" stop-opacity="0"/>
</radialGradient>
<radialGradient id="paint52_radial_2328_10733" cx="0" cy="0" r="1" gradientTransform="matrix(-1.44009 -6.8511 -5.3745 1.83575 210.058 34.7151)" gradientUnits="userSpaceOnUse">
<stop stop-color="#502D82"/>
<stop offset="0.17" stop-color="#4C2B7C" stop-opacity="0.88"/>
<stop offset="0.51" stop-color="#44266E" stop-opacity="0.55"/>
<stop offset="0.97" stop-color="#361F58" stop-opacity="0.03"/>
<stop offset="1" stop-color="#361F57" stop-opacity="0"/>
</radialGradient>
<radialGradient id="paint53_radial_2328_10733" cx="0" cy="0" r="1" gradientTransform="matrix(-1.44009 -6.8511 -5.3745 1.83575 253.379 8.68728)" gradientUnits="userSpaceOnUse">
<stop stop-color="#502D82"/>
<stop offset="0.17" stop-color="#4C2B7C" stop-opacity="0.88"/>
<stop offset="0.51" stop-color="#44266E" stop-opacity="0.55"/>
<stop offset="0.97" stop-color="#361F58" stop-opacity="0.03"/>
<stop offset="1" stop-color="#361F57" stop-opacity="0"/>
</radialGradient>
<radialGradient id="paint54_radial_2328_10733" cx="0" cy="0" r="1" gradientTransform="matrix(-1.44009 -6.8511 -5.3745 1.83575 288.281 174.725)" gradientUnits="userSpaceOnUse">
<stop stop-color="#502D82"/>
<stop offset="0.17" stop-color="#4C2B7C" stop-opacity="0.88"/>
<stop offset="0.51" stop-color="#44266E" stop-opacity="0.55"/>
<stop offset="0.97" stop-color="#361F58" stop-opacity="0.03"/>
<stop offset="1" stop-color="#361F57" stop-opacity="0"/>
</radialGradient>
<radialGradient id="paint55_radial_2328_10733" cx="0" cy="0" r="1" gradientTransform="matrix(-1.81271 -8.62376 -6.76511 2.31073 150.116 222.976)" gradientUnits="userSpaceOnUse">
<stop stop-color="#502D82"/>
<stop offset="0.17" stop-color="#4C2B7C" stop-opacity="0.88"/>
<stop offset="0.51" stop-color="#44266E" stop-opacity="0.55"/>
<stop offset="0.97" stop-color="#361F58" stop-opacity="0.03"/>
<stop offset="1" stop-color="#361F57" stop-opacity="0"/>
</radialGradient>
<radialGradient id="paint56_radial_2328_10733" cx="0" cy="0" r="1" gradientTransform="matrix(-1.81271 -8.62376 -6.76511 2.31073 152.407 112.177)" gradientUnits="userSpaceOnUse">
<stop stop-color="#502D82"/>
<stop offset="0.17" stop-color="#4C2B7C" stop-opacity="0.88"/>
<stop offset="0.51" stop-color="#44266E" stop-opacity="0.55"/>
<stop offset="0.97" stop-color="#361F58" stop-opacity="0.03"/>
<stop offset="1" stop-color="#361F57" stop-opacity="0"/>
</radialGradient>
<radialGradient id="paint57_radial_2328_10733" cx="0" cy="0" r="1" gradientTransform="matrix(-1.81271 -8.62376 -6.76511 2.31073 80.7972 87.7226)" gradientUnits="userSpaceOnUse">
<stop stop-color="#502D82"/>
<stop offset="0.17" stop-color="#4C2B7C" stop-opacity="0.88"/>
<stop offset="0.51" stop-color="#44266E" stop-opacity="0.55"/>
<stop offset="0.97" stop-color="#361F58" stop-opacity="0.03"/>
<stop offset="1" stop-color="#361F57" stop-opacity="0"/>
</radialGradient>
<radialGradient id="paint58_radial_2328_10733" cx="0" cy="0" r="1" gradientTransform="matrix(-1.81271 -8.62376 -6.76511 2.31073 145.955 263.382)" gradientUnits="userSpaceOnUse">
<stop stop-color="#502D82"/>
<stop offset="0.17" stop-color="#4C2B7C" stop-opacity="0.88"/>
<stop offset="0.51" stop-color="#44266E" stop-opacity="0.55"/>
<stop offset="0.97" stop-color="#361F58" stop-opacity="0.03"/>
<stop offset="1" stop-color="#361F57" stop-opacity="0"/>
</radialGradient>
<radialGradient id="paint59_radial_2328_10733" cx="0" cy="0" r="1" gradientTransform="matrix(-1.81271 -8.62376 -6.76511 2.31073 63.6253 295.394)" gradientUnits="userSpaceOnUse">
<stop stop-color="#502D82"/>
<stop offset="0.17" stop-color="#4C2B7C" stop-opacity="0.88"/>
<stop offset="0.51" stop-color="#44266E" stop-opacity="0.55"/>
<stop offset="0.97" stop-color="#361F58" stop-opacity="0.03"/>
<stop offset="1" stop-color="#361F57" stop-opacity="0"/>
</radialGradient>
<radialGradient id="paint60_radial_2328_10733" cx="0" cy="0" r="1" gradientTransform="matrix(-1.44009 -6.8511 -5.3745 1.83575 14.4002 287.325)" gradientUnits="userSpaceOnUse">
<stop stop-color="#502D82"/>
<stop offset="0.17" stop-color="#4C2B7C" stop-opacity="0.88"/>
<stop offset="0.51" stop-color="#44266E" stop-opacity="0.55"/>
<stop offset="0.97" stop-color="#361F58" stop-opacity="0.03"/>
<stop offset="1" stop-color="#361F57" stop-opacity="0"/>
</radialGradient>
<radialGradient id="paint61_radial_2328_10733" cx="0" cy="0" r="1" gradientTransform="matrix(-1.44009 -6.8511 -5.3745 1.83575 94.4432 177.269)" gradientUnits="userSpaceOnUse">
<stop stop-color="#502D82"/>
<stop offset="0.17" stop-color="#4C2B7C" stop-opacity="0.88"/>
<stop offset="0.51" stop-color="#44266E" stop-opacity="0.55"/>
<stop offset="0.97" stop-color="#361F58" stop-opacity="0.03"/>
<stop offset="1" stop-color="#361F57" stop-opacity="0"/>
</radialGradient>
<radialGradient id="paint62_radial_2328_10733" cx="0" cy="0" r="1" gradientTransform="matrix(-1.44009 -6.8511 -5.3745 1.83575 108.228 81.6365)" gradientUnits="userSpaceOnUse">
<stop stop-color="#502D82"/>
<stop offset="0.17" stop-color="#4C2B7C" stop-opacity="0.88"/>
<stop offset="0.51" stop-color="#44266E" stop-opacity="0.55"/>
<stop offset="0.97" stop-color="#361F58" stop-opacity="0.03"/>
<stop offset="1" stop-color="#361F57" stop-opacity="0"/>
</radialGradient>
<radialGradient id="paint63_radial_2328_10733" cx="0" cy="0" r="1" gradientTransform="matrix(-1.44009 -6.8511 -5.3745 1.83575 151.549 55.6087)" gradientUnits="userSpaceOnUse">
<stop stop-color="#502D82"/>
<stop offset="0.17" stop-color="#4C2B7C" stop-opacity="0.88"/>
<stop offset="0.51" stop-color="#44266E" stop-opacity="0.55"/>
<stop offset="0.97" stop-color="#361F58" stop-opacity="0.03"/>
<stop offset="1" stop-color="#361F57" stop-opacity="0"/>
</radialGradient>
<radialGradient id="paint64_radial_2328_10733" cx="0" cy="0" r="1" gradientTransform="matrix(-1.44009 -6.8511 -5.3745 1.83575 186.451 221.646)" gradientUnits="userSpaceOnUse">
<stop stop-color="#502D82"/>
<stop offset="0.17" stop-color="#4C2B7C" stop-opacity="0.88"/>
<stop offset="0.51" stop-color="#44266E" stop-opacity="0.55"/>
<stop offset="0.97" stop-color="#361F58" stop-opacity="0.03"/>
<stop offset="1" stop-color="#361F57" stop-opacity="0"/>
</radialGradient>
<radialGradient id="paint65_radial_2328_10733" cx="0" cy="0" r="1" gradientTransform="matrix(-1.81271 -8.62376 -6.76511 2.31073 344.813 573.042)" gradientUnits="userSpaceOnUse">
<stop stop-color="#502D82"/>
<stop offset="0.17" stop-color="#4C2B7C" stop-opacity="0.88"/>
<stop offset="0.51" stop-color="#44266E" stop-opacity="0.55"/>
<stop offset="0.97" stop-color="#361F58" stop-opacity="0.03"/>
<stop offset="1" stop-color="#361F57" stop-opacity="0"/>
</radialGradient>
<radialGradient id="paint66_radial_2328_10733" cx="0" cy="0" r="1" gradientTransform="matrix(-1.81271 -8.62376 -6.76511 2.31073 347.104 462.243)" gradientUnits="userSpaceOnUse">
<stop stop-color="#502D82"/>
<stop offset="0.17" stop-color="#4C2B7C" stop-opacity="0.88"/>
<stop offset="0.51" stop-color="#44266E" stop-opacity="0.55"/>
<stop offset="0.97" stop-color="#361F58" stop-opacity="0.03"/>
<stop offset="1" stop-color="#361F57" stop-opacity="0"/>
</radialGradient>
<radialGradient id="paint67_radial_2328_10733" cx="0" cy="0" r="1" gradientTransform="matrix(-1.81271 -8.62376 -6.76511 2.31073 275.496 437.79)" gradientUnits="userSpaceOnUse">
<stop stop-color="#502D82"/>
<stop offset="0.17" stop-color="#4C2B7C" stop-opacity="0.88"/>
<stop offset="0.51" stop-color="#44266E" stop-opacity="0.55"/>
<stop offset="0.97" stop-color="#361F58" stop-opacity="0.03"/>
<stop offset="1" stop-color="#361F57" stop-opacity="0"/>
</radialGradient>
<radialGradient id="paint68_radial_2328_10733" cx="0" cy="0" r="1" gradientTransform="matrix(-1.81271 -8.62376 -6.76511 2.31073 340.653 613.449)" gradientUnits="userSpaceOnUse">
<stop stop-color="#502D82"/>
<stop offset="0.17" stop-color="#4C2B7C" stop-opacity="0.88"/>
<stop offset="0.51" stop-color="#44266E" stop-opacity="0.55"/>
<stop offset="0.97" stop-color="#361F58" stop-opacity="0.03"/>
<stop offset="1" stop-color="#361F57" stop-opacity="0"/>
</radialGradient>
<radialGradient id="paint69_radial_2328_10733" cx="0" cy="0" r="1" gradientTransform="matrix(-1.81271 -8.62376 -6.76511 2.31073 258.323 645.46)" gradientUnits="userSpaceOnUse">
<stop stop-color="#502D82"/>
<stop offset="0.17" stop-color="#4C2B7C" stop-opacity="0.88"/>
<stop offset="0.51" stop-color="#44266E" stop-opacity="0.55"/>
<stop offset="0.97" stop-color="#361F58" stop-opacity="0.03"/>
<stop offset="1" stop-color="#361F57" stop-opacity="0"/>
</radialGradient>
<radialGradient id="paint70_radial_2328_10733" cx="0" cy="0" r="1" gradientTransform="matrix(-1.81271 -8.62376 -6.76511 2.31073 158.026 494.2)" gradientUnits="userSpaceOnUse">
<stop stop-color="#502D82"/>
<stop offset="0.17" stop-color="#4C2B7C" stop-opacity="0.88"/>
<stop offset="0.51" stop-color="#44266E" stop-opacity="0.55"/>
<stop offset="0.97" stop-color="#361F58" stop-opacity="0.03"/>
<stop offset="1" stop-color="#361F57" stop-opacity="0"/>
</radialGradient>
<radialGradient id="paint71_radial_2328_10733" cx="0" cy="0" r="1" gradientTransform="matrix(-1.44009 -6.8511 -5.3745 1.83575 209.098 637.392)" gradientUnits="userSpaceOnUse">
<stop stop-color="#502D82"/>
<stop offset="0.17" stop-color="#4C2B7C" stop-opacity="0.88"/>
<stop offset="0.51" stop-color="#44266E" stop-opacity="0.55"/>
<stop offset="0.97" stop-color="#361F58" stop-opacity="0.03"/>
<stop offset="1" stop-color="#361F57" stop-opacity="0"/>
</radialGradient>
<radialGradient id="paint72_radial_2328_10733" cx="0" cy="0" r="1" gradientTransform="matrix(-1.44009 -6.8511 -5.3745 1.83575 289.14 527.336)" gradientUnits="userSpaceOnUse">
<stop stop-color="#502D82"/>
<stop offset="0.17" stop-color="#4C2B7C" stop-opacity="0.88"/>
<stop offset="0.51" stop-color="#44266E" stop-opacity="0.55"/>
<stop offset="0.97" stop-color="#361F58" stop-opacity="0.03"/>
<stop offset="1" stop-color="#361F57" stop-opacity="0"/>
</radialGradient>
<radialGradient id="paint73_radial_2328_10733" cx="0" cy="0" r="1" gradientTransform="matrix(-1.44009 -6.8511 -5.3745 1.83575 302.926 431.703)" gradientUnits="userSpaceOnUse">
<stop stop-color="#502D82"/>
<stop offset="0.17" stop-color="#4C2B7C" stop-opacity="0.88"/>
<stop offset="0.51" stop-color="#44266E" stop-opacity="0.55"/>
<stop offset="0.97" stop-color="#361F58" stop-opacity="0.03"/>
<stop offset="1" stop-color="#361F57" stop-opacity="0"/>
</radialGradient>
<radialGradient id="paint74_radial_2328_10733" cx="0" cy="0" r="1" gradientTransform="matrix(-1.44009 -6.8511 -5.3745 1.83575 346.246 405.675)" gradientUnits="userSpaceOnUse">
<stop stop-color="#502D82"/>
<stop offset="0.17" stop-color="#4C2B7C" stop-opacity="0.88"/>
<stop offset="0.51" stop-color="#44266E" stop-opacity="0.55"/>
<stop offset="0.97" stop-color="#361F58" stop-opacity="0.03"/>
<stop offset="1" stop-color="#361F57" stop-opacity="0"/>
</radialGradient>
<radialGradient id="paint75_radial_2328_10733" cx="0" cy="0" r="1" gradientTransform="matrix(-1.44009 -6.8511 -5.3745 1.83575 381.148 571.713)" gradientUnits="userSpaceOnUse">
<stop stop-color="#502D82"/>
<stop offset="0.17" stop-color="#4C2B7C" stop-opacity="0.88"/>
<stop offset="0.51" stop-color="#44266E" stop-opacity="0.55"/>
<stop offset="0.97" stop-color="#361F58" stop-opacity="0.03"/>
<stop offset="1" stop-color="#361F57" stop-opacity="0"/>
</radialGradient>
</defs>
</svg>
