<svg width="19" height="19" viewBox="0 0 19 19" fill="none" xmlns="http://www.w3.org/2000/svg">
<path d="M13.2961 9.11487C13.2961 11.4241 11.4241 13.2961 9.11487 13.2961C6.80561 13.2961 4.93359 11.4241 4.93359 9.11487C4.93359 6.80561 6.80561 4.93359 9.11487 4.93359C11.4241 4.93359 13.2961 6.80561 13.2961 9.11487Z" stroke="#E5E5E5" stroke-width="1.50526"/>
<path d="M9.1145 0.752441C8.79897 1.03119 8.35723 1.75595 9.1145 2.42495M9.1145 15.805C9.43002 16.0838 9.87176 16.8085 9.1145 17.4775M15.3864 2.84534C14.942 2.81784 14.0696 3.0295 14.1356 4.09618M3.6753 13.7144C3.7028 14.1588 3.49114 15.0312 2.42446 14.9652M3.26298 2.84308C3.23545 3.28798 3.44733 4.16127 4.5151 4.09519M14.132 13.7165C14.5765 13.6905 15.4489 13.8906 15.3829 14.8992M17.477 9.11498C17.1983 8.79946 16.4735 8.35772 15.8045 9.11498M2.42446 8.69686C2.14571 9.01239 1.42096 9.45413 0.751953 8.69686" stroke="#E5E5E5" stroke-width="1.50526" stroke-linecap="round"/>
</svg>
